<svg version="1.1" id="Layer_1" xmlns="http://www.w3.org/2000/svg" xmlns:xlink="http://www.w3.org/1999/xlink" x="0px" y="0px"
	 width="100%" viewBox="0 0 1274 196" enable-background="new 0 0 1274 196" xml:space="preserve">
<path fill="#000000" opacity="1.000000" stroke="none" 
	d="
M938.000000,197.000000 
	C625.333313,197.000000 313.166656,197.000000 1.000000,197.000000 
	C1.000000,131.666672 1.000000,66.333336 1.000000,1.000000 
	C425.666656,1.000000 850.333313,1.000000 1275.000000,1.000000 
	C1275.000000,66.333336 1275.000000,131.666672 1275.000000,197.000000 
	C1162.833374,197.000000 1050.666626,197.000000 938.000000,197.000000 
M74.590904,88.942062 
	C74.757896,88.658211 74.924889,88.374359 75.800598,88.012886 
	C77.561035,87.037712 79.321465,86.062538 81.721245,84.830872 
	C83.496025,83.575912 85.270813,82.320953 87.813408,80.995026 
	C94.270241,78.649628 101.006134,76.853348 107.084930,73.764076 
	C111.079247,71.734154 114.737404,70.670517 119.156090,70.708397 
	C120.744789,70.722023 123.919395,67.744003 123.681229,67.036484 
	C122.702209,64.128136 120.688278,61.568165 118.778854,58.248322 
	C118.139381,56.833317 117.499908,55.418316 117.002785,53.247177 
	C114.349007,48.470387 111.695236,43.693596 108.994400,38.977219 
	C108.994400,38.977219 109.069084,38.960300 108.922577,38.445747 
	C108.626801,38.261585 108.331024,38.077423 107.984650,37.446198 
	C107.984650,37.446198 107.840240,37.020084 107.925179,36.470478 
	C107.627846,36.268307 107.330513,36.066132 106.791039,35.254234 
	C106.141922,34.175282 105.492798,33.096325 104.932579,31.473314 
	C104.635269,31.280399 104.337952,31.087482 104.030525,30.973309 
	C104.030525,30.973309 104.105453,30.947075 104.001793,30.218884 
	C103.086082,28.713017 102.170380,27.207150 100.680855,24.757658 
	C99.416809,27.571953 98.658058,29.261267 97.972305,30.975515 
	C97.972305,30.975515 97.968811,30.898445 97.448051,31.054960 
	C97.260826,31.353752 97.073601,31.652544 96.970863,31.976583 
	C96.970863,31.976583 96.929428,31.898737 96.284782,32.199322 
	C95.483391,34.123283 94.682007,36.047245 93.247910,38.253086 
	C91.819298,40.783295 90.390686,43.313503 88.309227,46.146484 
	C87.186554,48.411613 86.063881,50.676743 84.304214,53.238724 
	C83.164558,55.479897 82.024902,57.721069 80.231537,60.260094 
	C76.142998,67.805565 72.054451,75.351036 67.304161,83.166733 
	C63.925533,88.938354 60.546906,94.709976 57.168274,100.481598 
	C57.529949,100.819389 57.891628,101.157173 58.253304,101.494965 
	C62.866085,97.684784 67.478867,93.874603 72.024666,90.000404 
	C72.024666,90.000404 72.056587,90.087372 72.685326,90.026764 
	C73.161278,89.722488 73.637238,89.418213 74.590904,88.942062 
M141.000992,94.958504 
	C141.000992,94.958504 141.106461,94.924408 141.036194,94.302605 
	C140.720642,93.839874 140.405106,93.377151 139.820923,92.285599 
	C138.918686,90.820717 138.016449,89.355835 137.026794,87.244286 
	C136.379791,86.469421 135.732788,85.694557 135.004471,84.188019 
	C133.337112,81.113792 131.783783,77.968323 129.934052,75.008057 
	C129.367340,74.101105 127.849831,73.017593 127.004700,73.188271 
	C123.286224,73.939262 119.654411,75.119400 115.348541,75.996094 
	C114.853981,76.313774 114.359413,76.631447 113.426598,77.010681 
	C113.426598,77.010681 113.008644,77.156219 112.250153,77.010094 
	C110.461845,77.665382 108.673531,78.320679 106.437531,79.033989 
	C106.437531,79.033989 106.007385,79.170982 105.364372,79.013916 
	C104.866402,79.333900 104.368423,79.653893 103.441589,80.014954 
	C103.441589,80.014954 103.029449,80.140442 102.466614,80.051208 
	C102.268372,80.358665 102.070137,80.666122 101.445091,81.024353 
	C101.445091,81.024353 101.039612,81.166885 100.278572,81.022377 
	C96.815765,82.674973 93.352951,84.327568 89.455154,86.024971 
	C89.455154,86.024971 89.038475,86.157631 88.481354,86.062927 
	C88.292152,86.369659 88.102959,86.676392 87.246811,87.271881 
	C82.475906,90.137848 77.705002,93.003815 72.282341,96.133705 
	C70.800941,97.097145 69.116089,97.851204 67.872627,99.059494 
	C61.805515,104.955032 55.856277,110.971878 49.243340,117.198448 
	C44.764095,123.698639 40.203114,130.145203 35.873516,136.743591 
	C34.991486,138.087830 33.262360,140.501938 36.962105,141.650055 
	C33.389683,144.667679 29.817261,147.685287 26.244839,150.702911 
	C26.700289,151.313599 27.155739,151.924286 27.611189,152.534973 
	C76.324074,152.534973 125.036964,152.534973 174.770813,152.534973 
	C173.329849,150.332733 172.182419,148.579102 170.744934,146.229279 
	C169.852371,144.790359 168.959793,143.351440 167.997162,141.514252 
	C167.997162,141.514252 167.874115,141.129044 167.995560,140.536362 
	C167.681137,140.316833 167.366699,140.097290 167.038300,139.985748 
	C167.038300,139.985748 167.127716,139.923615 167.046539,139.191879 
	C164.046555,134.076187 161.046555,128.960495 157.839035,123.314766 
	C157.253510,122.850136 156.667969,122.385506 156.005661,121.276894 
	C155.627930,120.531082 155.250183,119.785271 155.027359,118.293747 
	C153.703232,117.492699 152.379120,116.691650 151.017609,115.968651 
	C151.017609,115.968651 151.099487,115.940636 150.747162,115.270790 
	C149.502502,115.229965 148.257828,115.189133 146.582230,115.014542 
	C146.582230,115.014542 146.132889,114.973412 145.709488,114.261078 
	C141.483795,113.896225 137.258118,113.531380 132.561615,113.018265 
	C132.561615,113.018265 132.069504,112.979813 131.565292,112.269974 
	C121.263847,112.520706 110.956352,112.637184 100.664482,113.100578 
	C97.399384,113.247581 94.175926,114.319420 90.996429,114.990906 
	C90.996429,114.990906 90.986938,114.924545 90.351509,115.002205 
	C89.865089,115.327522 89.378662,115.652847 88.080025,115.982918 
	C81.501419,118.085327 74.636581,119.571083 68.421227,122.456070 
	C61.618763,125.613594 55.416378,130.063904 48.301010,134.009247 
	C47.526596,134.664597 46.752182,135.319946 45.311787,136.041687 
	C44.196262,137.012238 43.080734,137.982788 41.090939,139.057251 
	C40.597004,139.347885 40.103073,139.638519 38.895302,139.214600 
	C39.622616,137.942398 40.033024,136.162674 41.127850,135.479019 
	C49.201283,130.437698 57.330421,125.472504 65.608505,120.776825 
	C70.604439,117.942917 75.898560,115.634682 81.707108,112.994263 
	C82.139297,112.938904 82.571495,112.883537 83.748238,112.986916 
	C85.515205,112.363083 87.282166,111.739243 89.886650,111.021706 
	C91.957161,110.669823 94.026062,110.308105 96.098518,109.968094 
	C100.389290,109.264153 104.681946,108.571754 109.908730,108.021324 
	C118.271965,107.961891 126.635193,107.902451 135.758133,108.216484 
	C139.678925,108.502090 143.599731,108.787697 149.020920,109.182602 
	C146.000946,104.054871 143.922287,100.525421 141.999680,96.358765 
	C141.695068,95.868240 141.390472,95.377724 141.000992,94.958504 
M350.868164,147.985199 
	C356.034088,147.989777 361.216309,148.217194 366.354553,147.842392 
	C367.640167,147.748627 369.831116,145.725174 369.839874,144.575134 
	C370.037903,118.579933 370.028992,92.582611 369.861877,66.586937 
	C369.854156,65.388565 368.058441,63.219559 367.016022,63.169876 
	C360.408356,62.854935 353.778320,63.009930 347.540405,63.009930 
	C346.968994,66.288994 346.496216,69.002045 345.948578,72.144539 
	C325.340576,53.522640 293.367462,61.861843 284.537750,87.769913 
	C281.578400,96.453201 280.779053,105.151611 282.134338,113.977127 
	C283.440002,122.479485 286.609619,130.426804 292.497101,136.979065 
	C301.833862,147.370117 313.898529,150.520370 327.165588,148.773209 
	C331.628448,148.185486 335.757935,145.066010 340.721863,142.999084 
	C342.178925,141.680252 343.635986,140.361404 345.629944,139.104370 
	C346.048492,139.417603 346.467041,139.730835 346.992462,140.850525 
	C346.994812,142.173965 347.352020,143.624023 346.933380,144.797241 
	C345.639923,148.422089 347.789734,148.120270 350.868164,147.985199 
M694.951904,87.570190 
	C700.624817,81.851280 709.968323,80.287369 717.309143,83.828064 
	C723.534180,86.830582 727.156494,95.181801 726.942871,102.638985 
	C726.513123,117.643852 726.815063,132.669693 726.815063,147.753143 
	C733.891724,147.753143 741.294617,147.753143 748.982605,147.753143 
	C748.982605,129.379929 749.413574,111.238808 748.775879,93.135330 
	C748.511475,85.628654 745.537476,78.362946 740.099487,72.627296 
	C729.370605,61.311047 707.975098,57.747108 693.653931,68.914070 
	C690.666687,71.243362 688.101624,74.114128 685.440796,76.641571 
	C679.724487,68.095345 671.356628,63.816242 661.615845,62.359035 
	C651.038025,60.776600 641.566345,64.014587 632.608276,71.474274 
	C632.608276,68.147964 632.608276,65.735062 632.608276,63.007130 
	C626.995605,63.007130 621.171143,63.221138 615.371521,62.933842 
	C611.330261,62.733643 609.874451,63.849236 609.909729,68.195724 
	C610.113953,93.350548 610.003967,118.507889 610.018372,143.664383 
	C610.019226,145.083847 610.179443,146.503220 610.240845,147.516724 
	C617.964233,147.516724 625.182678,147.516724 632.631958,147.516724 
	C632.359253,146.001938 632.016479,144.975876 632.013550,143.948853 
	C631.974731,130.121216 631.595398,116.276802 632.188232,102.474670 
	C632.398804,97.572052 634.083435,92.188332 636.713257,88.053352 
	C641.427979,80.640350 651.321106,80.823090 658.470581,83.203537 
	C664.182983,85.105492 668.430664,94.150040 668.111633,99.978195 
	C667.738831,106.788483 668.017761,113.634514 668.016663,120.465042 
	C668.015198,129.563690 668.016357,138.662338 668.016357,147.999832 
	C674.520203,147.999832 680.498535,147.836914 686.462280,148.061798 
	C689.961609,148.193756 691.107788,146.983276 691.065613,143.474915 
	C690.899414,129.649109 690.705566,115.811493 691.136353,101.997429 
	C691.281799,97.332283 693.248230,92.723915 694.951904,87.570190 
M480.989380,92.500000 
	C480.989380,73.415665 480.989380,54.331329 480.989380,35.290916 
	C473.013763,35.290916 465.614014,35.290916 457.832581,35.290916 
	C457.832581,47.896286 457.832581,60.220623 457.832581,72.746323 
	C455.500488,70.693832 453.741089,68.461563 451.444702,67.232635 
	C433.306915,57.526012 413.514709,60.917309 401.011658,78.169342 
	C388.403046,95.566994 390.638123,125.457001 406.994232,139.638092 
	C417.390442,148.651840 429.048035,151.221130 441.835663,147.822800 
	C447.468231,146.325958 452.501892,142.575455 457.877563,139.812103 
	C457.978394,142.058823 458.106659,144.916550 458.231628,147.700363 
	C466.008392,147.700363 473.408417,147.700363 480.989441,147.700363 
	C480.989441,129.434082 480.989441,111.467041 480.989380,92.500000 
M523.619263,143.070343 
	C549.106018,157.231094 580.304626,146.431946 586.655457,120.094215 
	C578.902588,120.094215 571.362793,120.071777 563.823914,120.143478 
	C563.308228,120.148384 562.525085,120.751472 562.327820,121.256577 
	C558.862732,130.128265 551.326355,130.510513 543.634216,129.969803 
	C535.726562,129.413910 527.371643,122.586174 528.635193,112.963585 
	C547.094849,112.963585 565.581238,112.901947 584.066284,113.031937 
	C586.750183,113.050812 588.749878,112.530632 588.921875,109.732002 
	C589.518311,100.026970 588.355652,90.621231 583.488586,81.949600 
	C576.987061,70.365860 566.694092,63.789257 553.973572,62.269669 
	C540.573303,60.668884 527.618591,63.095352 517.402100,73.153503 
	C508.325562,82.089432 504.811768,92.999626 504.834045,105.766510 
	C504.861176,121.319527 510.471344,133.522842 523.619263,143.070343 
M1034.991211,142.397476 
	C1034.991211,130.986801 1034.991211,119.576118 1034.991211,108.488594 
	C1044.326782,107.967064 1053.106323,108.036179 1061.719727,106.874298 
	C1077.703003,104.718323 1089.488159,93.750206 1090.692993,78.209099 
	C1092.273071,57.832005 1080.125122,44.378624 1059.035400,42.217823 
	C1047.516479,41.037613 1035.777222,42.008583 1024.137329,42.009296 
	C1020.461182,42.009521 1016.785095,42.009335 1013.334473,42.009335 
	C1013.334473,77.792946 1013.334473,112.821014 1013.334473,147.844177 
	C1020.614990,147.844177 1027.559448,147.844177 1034.991211,147.844177 
	C1034.991211,146.255203 1034.991211,144.814514 1034.991211,142.397476 
M1247.557861,68.964912 
	C1241.295654,66.652573 1235.180176,62.965969 1228.744385,62.278206 
	C1206.937500,59.947861 1186.753052,71.685745 1181.304932,94.063026 
	C1177.332153,110.380592 1182.890137,132.098343 1199.005859,142.848618 
	C1210.335327,150.406174 1236.008057,151.601898 1249.963989,140.906097 
	C1263.579712,130.470886 1269.375122,112.625854 1266.298828,96.711426 
	C1264.026733,84.957291 1258.244507,75.692589 1247.557861,68.964912 
M963.156494,82.013557 
	C965.160461,84.773483 967.164429,87.533417 969.252319,90.408905 
	C975.560791,90.408905 982.576172,90.408905 989.785034,90.408905 
	C989.412598,88.935272 989.068054,88.077782 988.992798,87.197273 
	C988.088745,76.627502 981.853455,69.034775 972.940552,65.301186 
	C958.097290,59.083420 943.138611,60.416115 929.629883,70.067940 
	C922.834900,74.922768 919.674438,89.315033 923.349121,96.897606 
	C928.444519,107.411697 938.449585,110.124329 948.413513,113.004379 
	C953.944092,114.602989 959.592712,115.945412 964.905518,118.100121 
	C969.575806,119.994255 970.527527,125.736786 966.935608,128.481766 
	C959.724731,133.992294 944.754639,131.824463 942.891846,122.224495 
	C942.729492,121.387993 941.470154,120.159889 940.695740,120.141266 
	C933.872986,119.977242 927.044678,120.046173 920.111145,120.046173 
	C919.464050,127.456192 922.978821,132.677170 927.200439,137.750061 
	C937.328430,149.920151 962.012451,152.966034 977.299927,144.374100 
	C986.409241,139.254410 990.431030,132.055893 990.078369,121.689964 
	C989.768066,112.568993 984.812012,106.554535 977.304199,103.298714 
	C967.657043,99.115120 957.310547,96.569084 947.455750,92.817459 
	C945.536804,92.086945 943.113586,88.850327 943.379883,87.155579 
	C943.732849,84.908722 946.146057,81.932564 948.305237,81.241150 
	C952.831970,79.791580 957.803772,79.092834 963.156494,82.013557 
M206.838074,116.328575 
	C206.559708,110.776299 206.206757,105.226486 206.022720,99.671082 
	C205.814194,93.376404 209.239700,88.866814 213.567963,84.822647 
	C220.752289,78.109901 237.240250,80.481987 240.269608,92.621613 
	C248.176346,92.621613 256.037292,92.621613 263.966034,92.621613 
	C260.635773,77.774178 252.171402,68.586044 238.339447,63.954056 
	C230.153732,61.212852 221.935806,61.446617 213.711533,63.066650 
	C201.058777,65.559013 188.493698,76.771652 184.911423,89.830536 
	C182.872635,97.262749 181.915070,104.462791 182.862213,112.308861 
	C186.192657,139.898071 208.261078,152.743637 233.462265,148.577881 
	C248.114548,146.155869 258.214966,136.932770 263.224335,122.482201 
	C264.485870,118.843018 263.577728,118.000381 260.222748,118.023262 
	C253.570114,118.068619 246.916977,118.036652 240.332123,118.036652 
	C237.697968,126.531898 231.462784,130.580261 221.602554,129.395355 
	C213.648651,128.439529 209.785339,123.695374 206.838074,116.328575 
M896.643921,132.900726 
	C898.708069,128.211029 900.772217,123.521339 903.192505,118.022453 
	C895.467712,118.022453 889.322449,118.165039 883.188843,117.960754 
	C880.236206,117.862419 878.316406,118.531143 877.027222,121.443741 
	C874.032043,128.210464 867.901611,130.023743 861.324646,129.909195 
	C854.408691,129.788742 849.051880,125.867035 846.448914,119.742874 
	C842.872437,111.328232 842.232605,102.512238 845.750122,93.603279 
	C848.607056,86.367599 854.520081,81.218811 861.272949,81.001953 
	C869.235352,80.746254 875.843933,85.240974 878.610168,92.543823 
	C886.622681,92.543823 894.503845,92.543823 904.237793,92.543823 
	C899.919495,85.344688 897.257812,78.328804 892.442078,73.430870 
	C883.220947,64.052315 871.113464,60.675205 858.046753,62.076653 
	C846.190979,63.348221 836.210815,68.314453 828.930847,78.239479 
	C822.208374,87.404640 820.613525,97.710236 820.986572,108.677963 
	C821.425598,121.586853 825.817200,132.582458 836.201294,140.657150 
	C848.855591,150.497208 862.943970,151.002502 877.728882,146.710739 
	C885.477844,144.461380 890.790527,138.964294 896.643921,132.900726 
M1132.094727,147.984406 
	C1137.054688,147.228973 1134.871826,143.304459 1134.878174,140.843277 
	C1134.895630,134.123306 1134.044067,127.401596 1134.048828,120.680931 
	C1134.053711,113.603363 1134.697021,106.528000 1134.974731,99.448273 
	C1135.173096,94.394402 1139.045898,88.344757 1143.874023,87.163063 
	C1147.782959,86.206360 1151.990479,86.536530 1156.002563,85.899567 
	C1157.420166,85.674515 1159.752075,84.326111 1159.793335,83.406639 
	C1160.110840,76.319778 1159.968018,69.212288 1159.968018,61.952503 
	C1149.815308,62.223816 1141.748047,65.691917 1134.595215,74.079750 
	C1134.595215,69.568893 1134.595215,66.467514 1134.595215,63.338303 
	C1127.260620,63.338303 1119.699829,63.338303 1112.344727,63.338303 
	C1112.344727,91.744827 1112.344727,119.812119 1112.344727,147.986755 
	C1118.847046,147.986755 1125.004883,147.986755 1132.094727,147.984406 
M795.994385,91.500000 
	C795.995300,83.346565 796.135315,75.188461 795.861816,67.044258 
	C795.815613,65.667778 794.052979,63.252106 792.972473,63.188053 
	C786.713867,62.817078 780.422058,63.006821 773.576538,63.006821 
	C773.576538,91.624496 773.576538,119.735664 773.576538,147.684113 
	C781.046692,147.684113 788.446716,147.684113 795.994385,147.684113 
	C795.994385,129.078125 795.994385,110.789062 795.994385,91.500000 
M797.216919,47.209534 
	C797.476318,45.145901 797.937500,43.084171 797.957031,41.018276 
	C798.014771,34.889374 792.660156,29.186279 786.854126,29.001335 
	C777.792236,28.712681 771.528198,33.220757 771.009094,40.404804 
	C770.504456,47.386997 773.790649,51.639824 781.659424,54.188011 
	C787.689026,56.140610 793.062256,53.876003 797.216919,47.209534 
z"/>
<path fill="#FDFEFE" opacity="1.000000" stroke="none" 
	d="
M694.667114,87.829895 
	C693.248230,92.723915 691.281799,97.332283 691.136353,101.997429 
	C690.705566,115.811493 690.899414,129.649109 691.065613,143.474915 
	C691.107788,146.983276 689.961609,148.193756 686.462280,148.061798 
	C680.498535,147.836914 674.520203,147.999832 668.016357,147.999832 
	C668.016357,138.662338 668.015198,129.563690 668.016663,120.465042 
	C668.017761,113.634514 667.738831,106.788483 668.111633,99.978195 
	C668.430664,94.150040 664.182983,85.105492 658.470581,83.203537 
	C651.321106,80.823090 641.427979,80.640350 636.713257,88.053352 
	C634.083435,92.188332 632.398804,97.572052 632.188232,102.474670 
	C631.595398,116.276802 631.974731,130.121216 632.013550,143.948853 
	C632.016479,144.975876 632.359253,146.001938 632.631958,147.516724 
	C625.182678,147.516724 617.964233,147.516724 610.240845,147.516724 
	C610.179443,146.503220 610.019226,145.083847 610.018372,143.664383 
	C610.003967,118.507889 610.113953,93.350548 609.909729,68.195724 
	C609.874451,63.849236 611.330261,62.733643 615.371521,62.933842 
	C621.171143,63.221138 626.995605,63.007130 632.608276,63.007130 
	C632.608276,65.735062 632.608276,68.147964 632.608276,71.474274 
	C641.566345,64.014587 651.038025,60.776600 661.615845,62.359035 
	C671.356628,63.816242 679.724487,68.095345 685.440796,76.641571 
	C688.101624,74.114128 690.666687,71.243362 693.653931,68.914070 
	C707.975098,57.747108 729.370605,61.311047 740.099487,72.627296 
	C745.537476,78.362946 748.511475,85.628654 748.775879,93.135330 
	C749.413574,111.238808 748.982605,129.379929 748.982605,147.753143 
	C741.294617,147.753143 733.891724,147.753143 726.815063,147.753143 
	C726.815063,132.669693 726.513123,117.643852 726.942871,102.638985 
	C727.156494,95.181801 723.534180,86.830582 717.309143,83.828064 
	C709.968323,80.287369 700.624817,81.851280 694.667114,87.829895 
z"/>
<path fill="#FDFDFD" opacity="1.000000" stroke="none" 
	d="
M480.989410,93.000000 
	C480.989441,111.467041 480.989441,129.434082 480.989441,147.700363 
	C473.408417,147.700363 466.008392,147.700363 458.231628,147.700363 
	C458.106659,144.916550 457.978394,142.058823 457.877563,139.812103 
	C452.501892,142.575455 447.468231,146.325958 441.835663,147.822800 
	C429.048035,151.221130 417.390442,148.651840 406.994232,139.638092 
	C390.638123,125.457001 388.403046,95.566994 401.011658,78.169342 
	C413.514709,60.917309 433.306915,57.526012 451.444702,67.232635 
	C453.741089,68.461563 455.500488,70.693832 457.832581,72.746323 
	C457.832581,60.220623 457.832581,47.896286 457.832581,35.290916 
	C465.614014,35.290916 473.013763,35.290916 480.989380,35.290916 
	C480.989380,54.331329 480.989380,73.415665 480.989410,93.000000 
M429.910522,127.992760 
	C438.544098,130.698410 449.093292,128.729874 454.439178,120.393929 
	C458.737579,113.691345 459.142944,106.740875 457.859039,99.712288 
	C455.237305,85.360046 444.205536,79.770996 431.970947,82.676636 
	C420.303955,85.447449 417.638763,92.724525 416.224121,102.290565 
	C414.798645,111.929581 418.755127,123.370323 429.910522,127.992760 
z"/>
<path fill="#FDFEFE" opacity="1.000000" stroke="none" 
	d="
M340.039734,143.103683 
	C335.757935,145.066010 331.628448,148.185486 327.165588,148.773209 
	C313.898529,150.520370 301.833862,147.370117 292.497101,136.979065 
	C286.609619,130.426804 283.440002,122.479485 282.134338,113.977127 
	C280.779053,105.151611 281.578400,96.453201 284.537750,87.769913 
	C293.367462,61.861843 325.340576,53.522640 345.948578,72.144539 
	C346.496216,69.002045 346.968994,66.288994 347.540405,63.009930 
	C353.778320,63.009930 360.408356,62.854935 367.016022,63.169876 
	C368.058441,63.219559 369.854156,65.388565 369.861877,66.586937 
	C370.028992,92.582611 370.037903,118.579933 369.839874,144.575134 
	C369.831116,145.725174 367.640167,147.748627 366.354553,147.842392 
	C361.216309,148.217194 356.034088,147.989777 350.461060,147.483124 
	C350.428284,145.193085 350.802612,143.405136 351.245972,141.287292 
	C349.918793,140.908890 348.402191,140.476471 346.885590,140.044067 
	C346.467041,139.730835 346.048492,139.417603 345.044312,138.918823 
	C342.305054,136.681122 340.264771,136.516678 338.323639,138.901123 
	C338.947937,140.429962 339.493835,141.766815 340.039734,143.103683 
M348.106964,138.281845 
	C348.194000,138.330994 348.281036,138.380142 348.368073,138.429291 
	C348.246338,138.285400 348.124573,138.141525 347.931946,137.429260 
	C347.626373,137.107315 347.320831,136.785370 347.015320,136.463440 
	C346.833374,136.672974 346.651428,136.882523 346.469452,137.092041 
	C346.978821,137.395721 347.488190,137.699387 348.106964,138.281845 
M350.107208,119.278458 
	C350.193176,119.327728 350.279114,119.376991 350.365082,119.426247 
	C350.243805,119.283821 350.122528,119.141396 350.000793,118.196732 
	C348.964020,115.785477 347.927216,113.374214 347.004089,110.310684 
	C347.062805,109.875618 347.121490,109.440552 347.862091,108.844841 
	C349.860077,105.053894 349.731323,103.942467 347.029633,102.278923 
	C347.008911,101.547760 346.988159,100.816605 346.842590,99.642418 
	C346.696289,99.359077 346.479706,99.147758 346.037750,98.275032 
	C345.993317,97.527802 345.948883,96.780571 346.626129,96.010445 
	C351.386810,95.567963 350.521881,92.505676 349.959625,89.215378 
	C347.487701,89.863800 345.334351,90.428658 342.903595,90.359840 
	C341.965637,89.423431 341.031372,88.483269 340.089172,87.551155 
	C331.241669,78.798462 315.071625,80.598953 308.409576,91.059845 
	C304.996094,96.419785 304.735565,102.361794 304.983490,108.452248 
	C305.421021,119.199158 312.174103,127.222183 320.423767,128.795547 
	C330.834076,130.780991 342.080322,126.778114 345.895477,116.026138 
	C347.263245,117.017830 348.631012,118.009521 350.107208,119.278458 
M350.588196,100.517235 
	C350.588196,100.517235 350.476257,100.584007 350.588196,100.517235 
M350.411804,110.482903 
	C350.411804,110.482903 350.523224,110.416351 350.411804,110.482903 
z"/>
<path fill="#FCFDFD" opacity="1.000000" stroke="none" 
	d="
M523.337341,142.820007 
	C510.471344,133.522842 504.861176,121.319527 504.834045,105.766510 
	C504.811768,92.999626 508.325562,82.089432 517.402100,73.153503 
	C527.618591,63.095352 540.573303,60.668884 553.973572,62.269669 
	C566.694092,63.789257 576.987061,70.365860 583.488586,81.949600 
	C588.355652,90.621231 589.518311,100.026970 588.921875,109.732002 
	C588.749878,112.530632 586.750183,113.050812 584.066284,113.031937 
	C565.581238,112.901947 547.094849,112.963585 528.635193,112.963585 
	C527.371643,122.586174 535.726562,129.413910 543.634216,129.969803 
	C551.326355,130.510513 558.862732,130.128265 562.327820,121.256577 
	C562.525085,120.751472 563.308228,120.148384 563.823914,120.143478 
	C571.362793,120.071777 578.902588,120.094215 586.655457,120.094215 
	C580.304626,146.431946 549.106018,157.231094 523.337341,142.820007 
M530.371338,89.102821 
	C529.496521,91.578636 528.621704,94.054451 527.630005,96.861137 
	C540.747375,96.861137 553.162170,96.861137 565.583679,96.861137 
	C563.607483,87.416069 558.810181,82.018684 550.553955,81.102829 
	C542.925964,80.256660 535.617493,81.210434 530.371338,89.102821 
z"/>
<path fill="#FDFDFD" opacity="1.000000" stroke="none" 
	d="
M1034.991211,142.885651 
	C1034.991211,144.814514 1034.991211,146.255203 1034.991211,147.844177 
	C1027.559448,147.844177 1020.614990,147.844177 1013.334473,147.844177 
	C1013.334473,112.821014 1013.334473,77.792946 1013.334473,42.009335 
	C1016.785095,42.009335 1020.461182,42.009521 1024.137329,42.009296 
	C1035.777222,42.008583 1047.516479,41.037613 1059.035400,42.217823 
	C1080.125122,44.378624 1092.273071,57.832005 1090.692993,78.209099 
	C1089.488159,93.750206 1077.703003,104.718323 1061.719727,106.874298 
	C1053.106323,108.036179 1044.326782,107.967064 1034.991211,108.488594 
	C1034.991211,119.576118 1034.991211,130.986801 1034.991211,142.885651 
M1038.738037,89.013512 
	C1042.404541,89.012627 1046.076416,88.881310 1049.736450,89.034218 
	C1063.092041,89.592239 1068.223633,84.225571 1067.076050,71.823418 
	C1066.592896,66.602333 1063.424072,61.704670 1058.218140,61.101788 
	C1050.613525,60.221111 1042.926270,60.054443 1034.983643,59.565552 
	C1034.983643,69.487053 1034.932739,78.431244 1035.104126,87.371155 
	C1035.114868,87.935051 1036.859253,88.465706 1038.738037,89.013512 
z"/>
<path fill="#FCFDFD" opacity="1.000000" stroke="none" 
	d="
M1247.929321,68.997108 
	C1258.244507,75.692589 1264.026733,84.957291 1266.298828,96.711426 
	C1269.375122,112.625854 1263.579712,130.470886 1249.963989,140.906097 
	C1236.008057,151.601898 1210.335327,150.406174 1199.005859,142.848618 
	C1182.890137,132.098343 1177.332153,110.380592 1181.304932,94.063026 
	C1186.753052,71.685745 1206.937500,59.947861 1228.744385,62.278206 
	C1235.180176,62.965969 1241.295654,66.652573 1247.929321,68.997108 
M1235.901123,125.626160 
	C1243.786255,117.785789 1245.152222,108.429688 1243.121094,97.846855 
	C1241.713013,90.510841 1235.123535,83.998322 1228.029297,82.119202 
	C1220.903931,80.231834 1210.844238,83.942871 1207.301514,89.254364 
	C1202.369507,96.648911 1201.932251,105.089264 1203.395386,113.276573 
	C1204.143433,117.462128 1207.017822,122.016121 1210.279419,124.853867 
	C1217.945068,131.523331 1226.678101,130.464493 1235.901123,125.626160 
z"/>
<path fill="#FCFDFC" opacity="1.000000" stroke="none" 
	d="
M962.759827,81.941109 
	C957.803772,79.092834 952.831970,79.791580 948.305237,81.241150 
	C946.146057,81.932564 943.732849,84.908722 943.379883,87.155579 
	C943.113586,88.850327 945.536804,92.086945 947.455750,92.817459 
	C957.310547,96.569084 967.657043,99.115120 977.304199,103.298714 
	C984.812012,106.554535 989.768066,112.568993 990.078369,121.689964 
	C990.431030,132.055893 986.409241,139.254410 977.299927,144.374100 
	C962.012451,152.966034 937.328430,149.920151 927.200439,137.750061 
	C922.978821,132.677170 919.464050,127.456192 920.111145,120.046173 
	C927.044678,120.046173 933.872986,119.977242 940.695740,120.141266 
	C941.470154,120.159889 942.729492,121.387993 942.891846,122.224495 
	C944.754639,131.824463 959.724731,133.992294 966.935608,128.481766 
	C970.527527,125.736786 969.575806,119.994255 964.905518,118.100121 
	C959.592712,115.945412 953.944092,114.602989 948.413513,113.004379 
	C938.449585,110.124329 928.444519,107.411697 923.349121,96.897606 
	C919.674438,89.315033 922.834900,74.922768 929.629883,70.067940 
	C943.138611,60.416115 958.097290,59.083420 972.940552,65.301186 
	C981.853455,69.034775 988.088745,76.627502 988.992798,87.197273 
	C989.068054,88.077782 989.412598,88.935272 989.785034,90.408905 
	C982.576172,90.408905 975.560791,90.408905 969.252319,90.408905 
	C967.164429,87.533417 965.160461,84.773483 962.759827,81.941109 
z"/>
<path fill="#FCFCFD" opacity="1.000000" stroke="none" 
	d="
M206.920685,116.732117 
	C209.785339,123.695374 213.648651,128.439529 221.602554,129.395355 
	C231.462784,130.580261 237.697968,126.531898 240.332123,118.036652 
	C246.916977,118.036652 253.570114,118.068619 260.222748,118.023262 
	C263.577728,118.000381 264.485870,118.843018 263.224335,122.482201 
	C258.214966,136.932770 248.114548,146.155869 233.462265,148.577881 
	C208.261078,152.743637 186.192657,139.898071 182.862213,112.308861 
	C181.915070,104.462791 182.872635,97.262749 184.911423,89.830536 
	C188.493698,76.771652 201.058777,65.559013 213.711533,63.066650 
	C221.935806,61.446617 230.153732,61.212852 238.339447,63.954056 
	C252.171402,68.586044 260.635773,77.774178 263.966034,92.621613 
	C256.037292,92.621613 248.176346,92.621613 240.269608,92.621613 
	C237.240250,80.481987 220.752289,78.109901 213.567963,84.822647 
	C209.239700,88.866814 205.814194,93.376404 206.022720,99.671082 
	C206.206757,105.226486 206.559708,110.776299 206.920685,116.732117 
z"/>
<path fill="#FDFEFE" opacity="1.000000" stroke="none" 
	d="
M896.360535,133.140869 
	C890.790527,138.964294 885.477844,144.461380 877.728882,146.710739 
	C862.943970,151.002502 848.855591,150.497208 836.201294,140.657150 
	C825.817200,132.582458 821.425598,121.586853 820.986572,108.677963 
	C820.613525,97.710236 822.208374,87.404640 828.930847,78.239479 
	C836.210815,68.314453 846.190979,63.348221 858.046753,62.076653 
	C871.113464,60.675205 883.220947,64.052315 892.442078,73.430870 
	C897.257812,78.328804 899.919495,85.344688 904.237793,92.543823 
	C894.503845,92.543823 886.622681,92.543823 878.610168,92.543823 
	C875.843933,85.240974 869.235352,80.746254 861.272949,81.001953 
	C854.520081,81.218811 848.607056,86.367599 845.750122,93.603279 
	C842.232605,102.512238 842.872437,111.328232 846.448914,119.742874 
	C849.051880,125.867035 854.408691,129.788742 861.324646,129.909195 
	C867.901611,130.023743 874.032043,128.210464 877.027222,121.443741 
	C878.316406,118.531143 880.236206,117.862419 883.188843,117.960754 
	C889.322449,118.165039 895.467712,118.022453 903.192505,118.022453 
	C900.772217,123.521339 898.708069,128.211029 896.360535,133.140869 
z"/>
<path fill="#FCFDFD" opacity="1.000000" stroke="none" 
	d="
M1131.628662,147.985580 
	C1125.004883,147.986755 1118.847046,147.986755 1112.344727,147.986755 
	C1112.344727,119.812119 1112.344727,91.744827 1112.344727,63.338303 
	C1119.699829,63.338303 1127.260620,63.338303 1134.595215,63.338303 
	C1134.595215,66.467514 1134.595215,69.568893 1134.595215,74.079750 
	C1141.748047,65.691917 1149.815308,62.223816 1159.968018,61.952503 
	C1159.968018,69.212288 1160.110840,76.319778 1159.793335,83.406639 
	C1159.752075,84.326111 1157.420166,85.674515 1156.002563,85.899567 
	C1151.990479,86.536530 1147.782959,86.206360 1143.874023,87.163063 
	C1139.045898,88.344757 1135.173096,94.394402 1134.974731,99.448273 
	C1134.697021,106.528000 1134.053711,113.603363 1134.048828,120.680931 
	C1134.044067,127.401596 1134.895630,134.123306 1134.878174,140.843277 
	C1134.871826,143.304459 1137.054688,147.228973 1131.628662,147.985580 
z"/>
<path fill="#FDFEFE" opacity="1.000000" stroke="none" 
	d="
M795.994385,92.000000 
	C795.994385,110.789062 795.994385,129.078125 795.994385,147.684113 
	C788.446716,147.684113 781.046692,147.684113 773.576538,147.684113 
	C773.576538,119.735664 773.576538,91.624496 773.576538,63.006821 
	C780.422058,63.006821 786.713867,62.817078 792.972473,63.188053 
	C794.052979,63.252106 795.815613,65.667778 795.861816,67.044258 
	C796.135315,75.188461 795.995300,83.346565 795.994385,92.000000 
z"/>
<path fill="#2AD7E3" opacity="1.000000" stroke="none" 
	d="
M167.874115,141.129044 
	C167.874115,141.129044 167.997162,141.514252 167.703308,141.778351 
	C166.608200,143.028870 165.806931,144.015274 164.699265,144.852112 
	C162.149414,142.813950 159.971420,140.840225 157.648834,139.054535 
	C152.876724,135.385559 147.563171,136.729843 142.057358,136.773239 
	C116.287376,136.976364 90.511375,136.400665 64.737137,136.141754 
	C63.791214,136.132248 62.835155,136.499207 61.894318,136.732986 
	C58.918522,137.472397 55.947704,138.231888 53.041599,138.630951 
	C53.734173,136.516403 54.360111,134.754471 54.992027,132.995972 
	C54.998009,132.999390 54.997490,132.987228 55.333153,132.992950 
	C56.116535,132.995270 56.564259,132.991898 57.336834,132.960144 
	C58.775959,132.288712 59.890236,131.645660 61.211002,131.262726 
	C62.607754,130.678833 63.798012,129.834824 64.993607,128.995422 
	C64.998947,129.000000 64.995117,128.988937 65.418571,128.993195 
	C74.188728,127.194397 82.517738,125.300987 90.896301,123.660660 
	C92.681221,123.311211 94.655533,123.809891 96.526558,124.045258 
	C100.014938,124.484085 103.479332,125.152306 106.976936,125.466621 
	C109.737122,125.714668 112.543205,125.749084 115.309464,125.572998 
	C121.855110,125.156334 128.453171,124.940308 134.899323,123.861801 
	C137.854355,123.367393 140.132812,122.642075 142.639053,124.956757 
	C144.254883,126.449051 147.618805,128.645462 148.290680,128.113892 
	C151.216324,125.799232 152.864609,128.412842 155.001862,129.250946 
	C155.003723,129.498230 155.004028,129.992813 155.043945,130.313782 
	C155.720154,131.090683 156.356445,131.546631 157.029968,132.348572 
	C159.387955,134.784439 161.708694,136.874344 164.017303,138.972519 
	C164.005173,138.980804 164.027740,138.979980 164.129211,139.206726 
	C164.433014,139.716553 164.703613,139.897766 165.390381,139.981964 
	C166.201447,139.965759 166.664581,139.944687 167.127716,139.923615 
	C167.127716,139.923615 167.038300,139.985748 167.096436,140.187927 
	C167.394409,140.636429 167.634262,140.882736 167.874115,141.129044 
z"/>
<path fill="#FDFEFE" opacity="1.000000" stroke="none" 
	d="
M796.962402,47.527603 
	C793.062256,53.876003 787.689026,56.140610 781.659424,54.188011 
	C773.790649,51.639824 770.504456,47.386997 771.009094,40.404804 
	C771.528198,33.220757 777.792236,28.712681 786.854126,29.001335 
	C792.660156,29.186279 798.014771,34.889374 797.957031,41.018276 
	C797.937500,43.084171 797.476318,45.145901 796.962402,47.527603 
z"/>
<path fill="#38C6E2" opacity="1.000000" stroke="none" 
	d="
M165.005661,145.001678 
	C165.806931,144.015274 166.608200,143.028870 167.738342,141.977493 
	C168.959793,143.351440 169.852371,144.790359 170.839340,146.912201 
	C169.806992,152.216415 166.039185,151.975266 162.570740,151.977966 
	C121.307610,152.010010 80.044434,152.003937 38.781315,151.964111 
	C36.326805,151.961746 33.872654,151.586868 31.065203,151.356323 
	C34.410294,148.241440 37.212299,145.632263 40.005363,143.402237 
	C38.395844,148.214752 40.447365,149.078949 44.520264,149.066879 
	C81.261200,148.958069 118.002609,148.984436 154.743790,149.032394 
	C157.966492,149.036591 161.188629,149.476624 164.713593,149.736526 
	C164.826035,147.913620 164.915848,146.457657 165.005661,145.001678 
z"/>
<path fill="#4DCDD4" opacity="1.000000" stroke="none" 
	d="
M61.004509,131.002625 
	C59.890236,131.645660 58.775959,132.288712 57.188530,132.735962 
	C56.142742,132.689194 55.570118,132.838211 54.997490,132.987228 
	C54.997490,132.987228 54.998009,132.999390 54.613770,133.001373 
	C52.525570,133.378586 50.821609,133.753830 49.076485,134.084366 
	C49.035320,134.039673 48.952461,133.950790 48.952461,133.950790 
	C55.416378,130.063904 61.618763,125.613594 68.421227,122.456070 
	C74.636581,119.571083 81.501419,118.085327 88.802254,115.965607 
	C90.011963,115.607040 90.499451,115.265793 90.986938,114.924545 
	C90.986938,114.924545 90.996429,114.990906 91.400154,114.991150 
	C97.100838,114.661346 102.394920,114.271706 107.695435,114.015114 
	C115.817795,113.621887 123.944588,113.320290 132.069504,112.979813 
	C132.069504,112.979813 132.561615,113.018265 133.078537,113.338821 
	C137.774597,114.097389 141.953751,114.535400 146.132889,114.973412 
	C146.132889,114.973412 146.582230,115.014542 147.057343,115.328102 
	C148.721451,115.741325 149.910477,115.840981 151.099487,115.940636 
	C151.099487,115.940636 151.017609,115.968651 151.050964,116.288055 
	C152.347046,117.418121 153.609741,118.228790 154.872452,119.039459 
	C155.250183,119.785271 155.627930,120.531082 155.980347,121.661232 
	C155.955017,122.045570 155.828293,122.170929 155.441589,122.115067 
	C152.531616,121.350090 149.318390,121.366066 147.639969,119.769035 
	C144.828506,117.093925 141.872070,116.942612 138.503372,116.974236 
	C130.839111,117.046196 123.162735,116.743965 115.512093,117.074898 
	C108.685112,117.370201 101.856789,118.105125 95.088799,119.066605 
	C92.294243,119.463608 89.521263,122.062958 86.970573,121.752647 
	C78.332047,120.701744 71.313232,123.527191 64.995117,128.988937 
	C64.995117,128.988937 64.998947,129.000000 64.662369,129.023956 
	C63.218700,129.699478 62.111607,130.351044 61.004509,131.002625 
z"/>
<path fill="#6AEAB9" opacity="1.000000" stroke="none" 
	d="
M116.860435,54.003311 
	C117.499908,55.418316 118.139381,56.833317 118.795387,58.859524 
	C118.873466,60.648346 118.935013,61.825966 118.641464,62.964462 
	C117.233177,61.950706 115.858757,61.159016 115.181702,59.970165 
	C112.045746,54.463654 101.822823,51.658237 96.453575,54.983253 
	C92.902451,57.182358 88.830673,56.318501 87.146988,52.667881 
	C87.869179,50.907787 88.439438,49.456367 89.355957,47.950443 
	C90.722168,46.439972 91.433258,44.461891 92.826828,43.637493 
	C95.666313,41.957726 99.197273,39.420734 101.839256,39.998631 
	C104.522858,40.585621 106.080383,40.333015 108.262344,39.003139 
	C108.710869,38.987385 108.889977,38.973843 109.069084,38.960300 
	C109.069084,38.960300 108.994400,38.977219 108.994095,39.358967 
	C109.578415,45.618759 111.741653,50.626114 116.860435,54.003311 
z"/>
<path fill="#5ABADA" opacity="1.000000" stroke="none" 
	d="
M40.014305,143.023102 
	C37.212299,145.632263 34.410294,148.241440 31.065203,151.356323 
	C33.872654,151.586868 36.326805,151.961746 38.781315,151.964111 
	C80.044434,152.003937 121.307610,152.010010 162.570740,151.977966 
	C166.039185,151.975266 169.806992,152.216415 170.984375,147.210297 
	C172.182419,148.579102 173.329849,150.332733 174.770813,152.534973 
	C125.036964,152.534973 76.324074,152.534973 27.611189,152.534973 
	C27.155739,151.924286 26.700289,151.313599 26.244839,150.702911 
	C29.817261,147.685287 33.389683,144.667679 36.972908,141.317703 
	C36.983715,140.985352 36.936886,141.039047 37.310616,141.079956 
	C38.310291,140.749008 38.936234,140.377151 39.579491,139.970825 
	C39.596802,139.936325 39.609142,139.929169 39.609142,139.929169 
	C40.103073,139.638519 40.597004,139.347885 41.775345,139.175323 
	C42.634453,139.852905 42.809158,140.412415 42.721085,141.098953 
	C41.966209,141.809616 41.474113,142.393265 40.739960,142.985718 
	C40.497898,142.994522 40.014305,143.023102 40.014305,143.023102 
z"/>
<path fill="#5AC3D0" opacity="1.000000" stroke="none" 
	d="
M39.252220,139.571884 
	C39.609142,139.929169 39.596802,139.936325 39.280731,139.579895 
	C38.288738,139.828674 37.612812,140.433868 36.936890,141.039047 
	C36.936886,141.039047 36.983715,140.985352 37.010216,140.961609 
	C33.262360,140.501938 34.991486,138.087830 35.873516,136.743591 
	C40.203114,130.145203 44.764095,123.698639 49.847939,117.091003 
	C50.648445,116.993828 50.844353,117.004082 50.989349,117.362762 
	C49.155827,120.350723 47.009628,122.941765 49.572212,126.038635 
	C57.039047,122.211876 64.399582,118.439590 71.760117,114.667313 
	C71.648811,114.570892 71.537506,114.474480 71.426201,114.378067 
	C73.948647,113.583313 76.471092,112.788559 79.304077,112.021652 
	C80.095978,112.396423 80.577339,112.743332 81.058693,113.090240 
	C75.898560,115.634682 70.604439,117.942917 65.608505,120.776825 
	C57.330421,125.472504 49.201283,130.437698 41.127850,135.479019 
	C40.033024,136.162674 39.622616,137.942398 39.252220,139.571884 
z"/>
<path fill="#68DDC2" opacity="1.000000" stroke="none" 
	d="
M118.996567,63.003586 
	C118.935013,61.825966 118.873466,60.648346 118.933464,59.175388 
	C120.688278,61.568165 122.702209,64.128136 123.681229,67.036484 
	C123.919395,67.744003 120.744789,70.722023 119.156090,70.708397 
	C114.737404,70.670517 111.079247,71.734154 107.084930,73.764076 
	C101.006134,76.853348 94.270241,78.649628 87.392815,80.984116 
	C86.972221,80.973213 86.896553,80.882294 86.974792,80.541000 
	C90.369301,78.131310 93.685562,76.062904 97.351471,73.960243 
	C101.919655,71.632965 105.931236,68.232262 110.421440,67.393349 
	C114.089966,66.707954 116.562431,65.303986 118.996567,63.003586 
z"/>
<path fill="#68DDC2" opacity="1.000000" stroke="none" 
	d="
M67.965904,82.896507 
	C72.054451,75.351036 76.142998,67.805565 80.906738,60.110466 
	C82.693962,59.294476 83.806000,58.628113 85.210190,58.203705 
	C84.665504,61.962955 83.828659,65.480247 82.690414,69.150482 
	C80.333771,72.065216 77.794228,74.597588 76.348930,77.648361 
	C74.637848,81.260155 70.501785,84.067825 72.010078,89.220093 
	C72.025101,89.702339 72.040840,89.894859 72.056587,90.087372 
	C72.056587,90.087372 72.024666,90.000404 71.668976,90.001663 
	C70.197487,87.634109 69.081696,85.265312 67.965904,82.896507 
z"/>
<path fill="#5ED9CB" opacity="1.000000" stroke="none" 
	d="
M101.039612,81.166885 
	C101.039612,81.166885 101.445091,81.024353 101.895279,80.928543 
	C102.653358,80.680916 102.881355,80.450150 103.029449,80.140442 
	C103.029449,80.140442 103.441589,80.014954 103.957886,79.997063 
	C104.985252,79.709770 105.496315,79.440376 106.007385,79.170982 
	C106.007385,79.170982 106.437531,79.033989 107.099075,79.018326 
	C109.505669,78.996132 111.250717,78.989609 113.157982,79.176453 
	C114.212471,79.584221 115.104744,79.798607 115.750938,80.287689 
	C111.222961,81.947334 106.914940,83.259872 102.684059,84.786232 
	C101.951378,85.050560 101.545357,86.220314 100.740623,86.975380 
	C100.492798,86.978912 99.997238,86.990585 99.747635,86.991287 
	C99.498024,86.991982 98.998840,86.997238 98.632576,87.039825 
	C93.819107,89.220253 89.447945,91.540428 84.900162,93.437111 
	C81.386650,94.902443 77.651726,95.836914 73.778641,96.877533 
	C73.339401,96.455040 73.136749,96.162415 72.934105,95.869781 
	C77.705002,93.003815 82.475906,90.137848 87.810394,87.055237 
	C88.672333,86.686600 88.893829,86.459618 89.038475,86.157631 
	C89.038475,86.157631 89.455154,86.024971 90.107643,86.012764 
	C94.931183,85.972740 99.371452,86.517448 101.039612,81.166885 
z"/>
<path fill="#56D3D0" opacity="1.000000" stroke="none" 
	d="
M108.973831,107.874603 
	C104.681946,108.571754 100.389290,109.264153 96.098518,109.968094 
	C94.026062,110.308105 91.957161,110.669823 89.451797,110.788742 
	C89.009254,110.369003 89.001572,110.182220 89.033089,109.637985 
	C90.740761,108.062683 92.274429,106.138588 94.108551,105.788490 
	C97.036087,105.229652 100.173698,105.899437 103.204247,105.727753 
	C111.808044,105.240364 120.402618,104.589996 129.262299,104.112373 
	C130.023209,104.488106 130.522659,104.755272 130.923035,105.415741 
	C125.034637,106.183067 119.241928,106.513268 113.458305,106.960892 
	C111.948952,107.077713 110.467888,107.560112 108.973831,107.874603 
z"/>
<path fill="#7EE9B8" opacity="1.000000" stroke="none" 
	d="
M107.992928,39.005352 
	C106.080383,40.333015 104.522858,40.585621 101.839256,39.998631 
	C99.197273,39.420734 95.666313,41.957726 92.826828,43.637493 
	C91.433258,44.461891 90.722168,46.439972 89.350967,47.590187 
	C88.987183,46.804199 88.974632,46.323956 88.962082,45.843716 
	C90.390686,43.313503 91.819298,40.783295 93.950096,38.077606 
	C95.411331,35.901001 96.170380,33.899868 96.929428,31.898737 
	C96.929428,31.898737 96.970863,31.976583 97.176895,31.868336 
	C97.578217,31.472874 97.773514,31.185658 97.968811,30.898445 
	C97.968811,30.898445 97.972305,30.975515 98.280884,30.933369 
	C99.389069,30.047007 100.188690,29.202791 100.778679,28.579893 
	C102.004829,29.452368 103.055145,30.199722 104.105453,30.947075 
	C104.105453,30.947075 104.030525,30.973309 104.101807,31.164341 
	C104.316475,31.657217 104.540001,31.877886 104.843674,32.017372 
	C105.492798,33.096325 106.141922,34.175282 106.980316,35.793404 
	C107.310669,36.642189 107.534218,36.871361 107.840240,37.020084 
	C107.840240,37.020084 107.984650,37.446198 107.994064,37.948135 
	C107.999969,38.635162 107.996452,38.820255 107.992928,39.005352 
z"/>
<path fill="#5DCFD2" opacity="1.000000" stroke="none" 
	d="
M72.608223,96.001740 
	C73.136749,96.162415 73.339401,96.455040 73.735626,97.224762 
	C72.287720,99.135025 70.646225,100.568192 68.736694,102.187981 
	C64.830536,108.133736 57.382736,110.061638 54.278938,116.443626 
	C53.997612,117.022079 52.156845,116.842110 51.040264,117.014343 
	C50.844353,117.004082 50.648445,116.993828 50.158936,116.964691 
	C55.856277,110.971878 61.805515,104.955032 67.872627,99.059494 
	C69.116089,97.851204 70.800941,97.097145 72.608223,96.001740 
z"/>
<path fill="#6FD9CB" opacity="1.000000" stroke="none" 
	d="
M115.997017,80.012993 
	C115.104744,79.798607 114.212471,79.584221 113.159019,78.872223 
	C113.001442,77.968483 113.005043,77.562347 113.008644,77.156219 
	C113.008644,77.156219 113.426598,77.010681 113.946869,76.981125 
	C114.975151,76.682381 115.483177,76.413200 115.991196,76.144020 
	C119.654411,75.119400 123.286224,73.939262 127.004700,73.188271 
	C127.849831,73.017593 129.367340,74.101105 129.934052,75.008057 
	C131.783783,77.968323 133.337112,81.113792 134.995789,84.600113 
	C134.987091,85.012207 134.888412,85.104706 134.543869,85.030731 
	C133.480057,84.330032 132.347672,83.829857 132.110489,83.055481 
	C130.844254,78.921547 127.712379,78.660904 124.253548,79.008698 
	C121.495590,79.286011 118.748779,79.674088 115.997017,80.012993 
z"/>
<path fill="#72D0C9" opacity="1.000000" stroke="none" 
	d="
M67.635033,83.031616 
	C69.081696,85.265312 70.197487,87.634109 71.702469,90.033669 
	C67.478867,93.874603 62.866085,97.684784 58.253304,101.494965 
	C57.891628,101.157173 57.529949,100.819389 57.168274,100.481598 
	C60.546906,94.709976 63.925533,88.938354 67.635033,83.031616 
z"/>
<path fill="#56D3D0" opacity="1.000000" stroke="none" 
	d="
M141.843628,96.995972 
	C143.922287,100.525421 146.000946,104.054871 149.020920,109.182602 
	C143.599731,108.787697 139.678925,108.502090 135.242050,107.757523 
	C134.471375,106.543152 134.216766,105.787727 134.322968,105.054535 
	C136.725204,105.852196 138.457703,106.212608 139.082077,103.228172 
	C139.245193,102.448502 140.588058,101.915657 141.848099,100.899178 
	C141.508011,100.366249 140.754135,99.184860 139.906036,97.755013 
	C139.863510,96.686180 139.915192,95.865814 140.252563,95.022728 
	C140.727661,94.974815 140.917053,94.949608 141.106461,94.924408 
	C141.106461,94.924408 141.000992,94.958504 141.020203,95.221741 
	C141.307495,95.988640 141.575562,96.492302 141.843628,96.995972 
z"/>
<path fill="#6AC8D0" opacity="1.000000" stroke="none" 
	d="
M131.817398,112.624893 
	C123.944588,113.320290 115.817795,113.621887 107.695435,114.015114 
	C102.394920,114.271706 97.100838,114.661346 91.368652,114.979713 
	C94.175926,114.319420 97.399384,113.247581 100.664482,113.100578 
	C110.956352,112.637184 121.263847,112.520706 131.817398,112.624893 
z"/>
<path fill="#91DEC6" opacity="1.000000" stroke="none" 
	d="
M116.931610,53.625244 
	C111.741653,50.626114 109.578415,45.618759 109.017624,39.328758 
	C111.695236,43.693596 114.349007,48.470387 116.931610,53.625244 
z"/>
<path fill="#5DCFD2" opacity="1.000000" stroke="none" 
	d="
M167.087128,139.557739 
	C166.664581,139.944687 166.201447,139.965759 165.277466,139.763855 
	C164.616135,139.266037 164.353180,139.079071 164.027740,138.979980 
	C164.027740,138.979980 164.005173,138.980804 163.976028,138.616486 
	C161.964172,134.832947 159.981476,131.413727 157.999420,127.580132 
	C158.015564,126.058777 158.031067,124.951790 158.046555,123.844810 
	C161.046555,128.960495 164.046555,134.076187 167.087128,139.557739 
z"/>
<path fill="#72D0C9" opacity="1.000000" stroke="none" 
	d="
M133.962173,105.032310 
	C134.216766,105.787727 134.471375,106.543152 134.862198,107.570786 
	C126.635193,107.902451 118.271965,107.961891 109.441284,107.947968 
	C110.467888,107.560112 111.948952,107.077713 113.458305,106.960892 
	C119.241928,106.513268 125.034637,106.183067 131.290543,105.414291 
	C132.492142,105.023796 133.227158,105.028053 133.962173,105.032310 
z"/>
<path fill="#F6F8F9" opacity="1.000000" stroke="none" 
	d="
M346.939026,140.447296 
	C348.402191,140.476471 349.918793,140.908890 351.245972,141.287292 
	C350.802612,143.405136 350.428284,145.193085 350.066528,147.407654 
	C347.789734,148.120270 345.639923,148.422089 346.933380,144.797241 
	C347.352020,143.624023 346.994812,142.173965 346.939026,140.447296 
z"/>
<path fill="#72D0C9" opacity="1.000000" stroke="none" 
	d="
M100.659088,81.094635 
	C99.371452,86.517448 94.931183,85.972740 90.325134,85.990356 
	C93.352951,84.327568 96.815765,82.674973 100.659088,81.094635 
z"/>
<path fill="#F6F8F9" opacity="1.000000" stroke="none" 
	d="
M340.380798,143.051392 
	C339.493835,141.766815 338.947937,140.429962 338.323639,138.901123 
	C340.264771,136.516678 342.305054,136.681122 344.775879,138.887924 
	C343.635986,140.361404 342.178925,141.680252 340.380798,143.051392 
z"/>
<path fill="#6AC8D0" opacity="1.000000" stroke="none" 
	d="
M145.921188,114.617249 
	C141.953751,114.535400 137.774597,114.097389 133.313934,113.412956 
	C137.258118,113.531380 141.483795,113.896225 145.921188,114.617249 
z"/>
<path fill="#91DEC6" opacity="1.000000" stroke="none" 
	d="
M104.053619,30.582981 
	C103.055145,30.199722 102.004829,29.452368 100.778679,28.579893 
	C100.188690,29.202791 99.389069,30.047007 98.244377,30.920902 
	C98.658058,29.261267 99.416809,27.571953 100.680855,24.757658 
	C102.170380,27.207150 103.086082,28.713017 104.053619,30.582981 
z"/>
<path fill="#91DEC6" opacity="1.000000" stroke="none" 
	d="
M84.918030,57.961746 
	C83.806000,58.628113 82.693962,59.294476 81.233597,59.961540 
	C82.024902,57.721069 83.164558,55.479897 84.652420,53.119774 
	C85.000633,53.000824 85.059967,53.059875 85.040451,53.468826 
	C84.986626,55.239098 84.952332,56.600422 84.918030,57.961746 
z"/>
<path fill="#56D3D0" opacity="1.000000" stroke="none" 
	d="
M81.382904,113.042252 
	C80.577339,112.743332 80.095978,112.396423 79.359497,111.678368 
	C80.631920,109.716278 82.087212,107.147530 83.916199,111.194290 
	C83.547577,111.905411 83.275627,112.366791 83.003677,112.828171 
	C82.571495,112.883537 82.139297,112.938904 81.382904,113.042252 
z"/>
<path fill="#91DEC6" opacity="1.000000" stroke="none" 
	d="
M88.635651,45.995102 
	C88.974632,46.323956 88.987183,46.804199 89.004715,47.644691 
	C88.439438,49.456367 87.869179,50.907787 86.824394,52.678421 
	C85.919899,53.018383 85.489937,53.039131 85.059967,53.059875 
	C85.059967,53.059875 85.000633,53.000824 84.970917,52.971344 
	C86.063881,50.676743 87.186554,48.411613 88.635651,45.995102 
z"/>
<path fill="#4DCDD4" opacity="1.000000" stroke="none" 
	d="
M42.983864,140.971924 
	C42.809158,140.412415 42.634453,139.852905 42.212479,139.123367 
	C43.080734,137.982788 44.196262,137.012238 45.683456,136.050079 
	C46.055126,136.058456 46.132706,136.141388 46.053352,136.467621 
	C45.650513,137.860931 45.327026,138.928024 44.893051,140.213440 
	C44.583614,140.704514 44.324718,140.896362 43.750340,140.999390 
	C43.324490,140.984940 43.154179,140.978424 42.983864,140.971924 
z"/>
<path fill="#72D0C9" opacity="1.000000" stroke="none" 
	d="
M87.008911,81.019608 
	C85.270813,82.320953 83.496025,83.575912 81.353195,84.909164 
	C80.985153,84.987465 80.887817,84.888123 80.923531,84.529793 
	C80.972748,83.448555 80.986252,82.725655 81.331215,81.998718 
	C82.104630,81.990448 82.546585,81.986206 83.210426,81.881973 
	C83.709358,81.588615 83.898071,81.330643 84.361710,81.004593 
	C85.448830,80.961517 86.172691,80.921898 86.896553,80.882294 
	C86.896553,80.882294 86.972221,80.973213 87.008911,81.019608 
z"/>
<path fill="#91DEC6" opacity="1.000000" stroke="none" 
	d="
M96.607101,32.049030 
	C96.170380,33.899868 95.411331,35.901001 94.266449,37.936668 
	C94.682007,36.047245 95.483391,34.123283 96.607101,32.049030 
z"/>
<path fill="#4DCDD4" opacity="1.000000" stroke="none" 
	d="
M157.942795,123.579788 
	C158.031067,124.951790 158.015564,126.058777 157.666992,127.582497 
	C156.890701,127.998596 156.447479,127.997963 156.003250,127.577667 
	C155.944275,125.495659 155.886276,123.833290 155.828293,122.170929 
	C155.828293,122.170929 155.955017,122.045570 156.018738,121.983223 
	C156.667969,122.385506 157.253510,122.850136 157.942795,123.579788 
z"/>
<path fill="#6AC8D0" opacity="1.000000" stroke="none" 
	d="
M154.949905,118.666603 
	C153.609741,118.228790 152.347046,117.418121 151.069672,116.249023 
	C152.379120,116.691650 153.703232,117.492699 154.949905,118.666603 
z"/>
<path fill="#5AC3D0" opacity="1.000000" stroke="none" 
	d="
M83.375961,112.907547 
	C83.275627,112.366791 83.547577,111.905411 84.240028,111.202988 
	C85.092659,110.956902 85.524796,110.951881 86.187851,110.861664 
	C86.706116,110.589981 86.902939,110.333908 87.340073,110.006508 
	C88.111893,110.001656 88.552895,109.998550 88.993896,109.995438 
	C89.001572,110.182220 89.009254,110.369003 89.033035,110.835594 
	C87.282166,111.739243 85.515205,112.363083 83.375961,112.907547 
z"/>
<path fill="#72D0C9" opacity="1.000000" stroke="none" 
	d="
M81.033524,85.037415 
	C79.321465,86.062538 77.561035,87.037712 75.399826,88.007965 
	C74.999046,88.003044 74.900658,87.921867 74.972839,87.608948 
	C76.034782,86.530479 77.024544,85.764931 78.374527,84.999725 
	C79.452438,84.962753 80.170128,84.925438 80.887817,84.888123 
	C80.887817,84.888123 80.985153,84.987465 81.033524,85.037415 
z"/>
<path fill="#72D0C9" opacity="1.000000" stroke="none" 
	d="
M112.629395,77.083160 
	C113.005043,77.562347 113.001442,77.968483 112.996803,78.678848 
	C111.250717,78.989609 109.505669,78.996132 107.322922,78.989319 
	C108.673531,78.320679 110.461845,77.665382 112.629395,77.083160 
z"/>
<path fill="#6FD9CB" opacity="1.000000" stroke="none" 
	d="
M137.114212,87.890953 
	C138.016449,89.355835 138.918686,90.820717 139.896912,92.656548 
	C139.972900,93.027496 139.857376,93.141335 139.484497,93.086472 
	C138.367493,91.391022 137.623337,89.750435 136.938110,88.055298 
	C136.997025,88.000748 137.114212,87.890953 137.114212,87.890953 
z"/>
<path fill="#6FD9CB" opacity="1.000000" stroke="none" 
	d="
M135.036438,84.965950 
	C135.732788,85.694557 136.379791,86.469421 137.070496,87.567619 
	C137.114212,87.890953 136.997025,88.000748 136.615585,87.965881 
	C135.785568,86.988914 135.336990,86.046806 134.888412,85.104706 
	C134.888412,85.104706 134.987091,85.012207 135.036438,84.965950 
z"/>
<path fill="#4DCDD4" opacity="1.000000" stroke="none" 
	d="
M46.016449,136.016876 
	C46.752182,135.319946 47.526596,134.664597 48.626736,133.980011 
	C48.952461,133.950790 49.035320,134.039673 48.984585,134.404526 
	C48.000134,135.226715 47.066418,135.684052 46.132706,136.141388 
	C46.132706,136.141388 46.055126,136.058456 46.016449,136.016876 
z"/>
<path fill="#6AC8D0" opacity="1.000000" stroke="none" 
	d="
M150.923325,115.605713 
	C149.910477,115.840981 148.721451,115.741325 147.272797,115.394989 
	C148.257828,115.189133 149.502502,115.229965 150.923325,115.605713 
z"/>
<path fill="#6FD9CB" opacity="1.000000" stroke="none" 
	d="
M141.071320,94.613510 
	C140.917053,94.949608 140.727661,94.974815 140.246841,94.703568 
	C139.922729,93.985191 139.890060,93.563263 139.857391,93.141335 
	C139.857376,93.141335 139.972900,93.027496 140.031219,92.970963 
	C140.405106,93.377151 140.720642,93.839874 141.071320,94.613510 
z"/>
<path fill="#6AC8D0" opacity="1.000000" stroke="none" 
	d="
M90.669220,114.963379 
	C90.499451,115.265793 90.011963,115.607040 89.208359,115.963234 
	C89.378662,115.652847 89.865089,115.327522 90.669220,114.963379 
z"/>
<path fill="#72D0C9" opacity="1.000000" stroke="none" 
	d="
M105.685883,79.092453 
	C105.496315,79.440376 104.985252,79.709770 104.172318,79.976532 
	C104.368423,79.653893 104.866402,79.333900 105.685883,79.092453 
z"/>
<path fill="#72D0C9" opacity="1.000000" stroke="none" 
	d="
M115.669868,76.070053 
	C115.483177,76.413200 114.975151,76.682381 114.165993,76.950348 
	C114.359413,76.631447 114.853981,76.313774 115.669868,76.070053 
z"/>
<path fill="#6FD9CB" opacity="1.000000" stroke="none" 
	d="
M141.921661,96.677368 
	C141.575562,96.492302 141.307495,95.988640 141.062653,95.186081 
	C141.390472,95.377724 141.695068,95.868240 141.921661,96.677368 
z"/>
<path fill="#72D0C9" opacity="1.000000" stroke="none" 
	d="
M72.370956,90.057068 
	C72.040840,89.894859 72.025101,89.702339 72.327209,89.229233 
	C73.066948,88.925163 73.488853,88.901688 73.958694,88.939430 
	C74.006630,89.000656 74.113190,89.113937 74.113190,89.113937 
	C73.637238,89.418213 73.161278,89.722488 72.370956,90.057068 
z"/>
<path fill="#91DEC6" opacity="1.000000" stroke="none" 
	d="
M107.882706,36.745281 
	C107.534218,36.871361 107.310669,36.642189 107.101387,36.098267 
	C107.330513,36.066132 107.627846,36.268307 107.882706,36.745281 
z"/>
<path fill="#5DCFD2" opacity="1.000000" stroke="none" 
	d="
M167.934845,140.832703 
	C167.634262,140.882736 167.394409,140.636429 167.103424,140.133942 
	C167.366699,140.097290 167.681137,140.316833 167.934845,140.832703 
z"/>
<path fill="#91DEC6" opacity="1.000000" stroke="none" 
	d="
M97.708435,30.976702 
	C97.773514,31.185658 97.578217,31.472874 97.134644,31.855713 
	C97.073601,31.652544 97.260826,31.353752 97.708435,30.976702 
z"/>
<path fill="#72D0C9" opacity="1.000000" stroke="none" 
	d="
M75.045464,88.046776 
	C74.924889,88.374359 74.757896,88.658211 74.352051,89.028000 
	C74.113190,89.113937 74.006630,89.000656 74.086342,88.744492 
	C74.365524,88.240654 74.610390,88.051834 74.900658,87.921867 
	C74.900658,87.921867 74.999046,88.003044 75.045464,88.046776 
z"/>
<path fill="#91DEC6" opacity="1.000000" stroke="none" 
	d="
M104.888123,31.745346 
	C104.540001,31.877886 104.316475,31.657217 104.106857,31.124969 
	C104.337952,31.087482 104.635269,31.280399 104.888123,31.745346 
z"/>
<path fill="#72D0C9" opacity="1.000000" stroke="none" 
	d="
M88.759918,86.110275 
	C88.893829,86.459618 88.672333,86.686600 88.143875,86.910858 
	C88.102959,86.676392 88.292152,86.369659 88.759918,86.110275 
z"/>
<path fill="#91DEC6" opacity="1.000000" stroke="none" 
	d="
M108.262344,39.003139 
	C107.996452,38.820255 107.999969,38.635162 108.019363,38.171669 
	C108.331024,38.077423 108.626801,38.261585 108.995834,38.703026 
	C108.889977,38.973843 108.710869,38.987385 108.262344,39.003139 
z"/>
<path fill="#72D0C9" opacity="1.000000" stroke="none" 
	d="
M102.748032,80.095825 
	C102.881355,80.450150 102.653358,80.680916 102.108688,80.903152 
	C102.070137,80.666122 102.268372,80.358665 102.748032,80.095825 
z"/>
<path fill="#000000" opacity="1.000000" stroke="none" 
	d="
M429.532715,127.837769 
	C418.755127,123.370323 414.798645,111.929581 416.224121,102.290565 
	C417.638763,92.724525 420.303955,85.447449 431.970947,82.676636 
	C444.205536,79.770996 455.237305,85.360046 457.859039,99.712288 
	C459.142944,106.740875 458.737579,113.691345 454.439178,120.393929 
	C449.093292,128.729874 438.544098,130.698410 429.532715,127.837769 
z"/>
<path fill="#000000" opacity="1.000000" stroke="none" 
	d="
M345.904419,96.033325 
	C345.948883,96.780571 345.993317,97.527802 346.057556,98.906479 
	C346.374084,99.720436 346.670746,99.902939 346.967438,100.085449 
	C346.988159,100.816605 347.008911,101.547760 347.024597,103.060059 
	C347.073120,105.562622 347.126648,107.284058 347.180176,109.005486 
	C347.121490,109.440552 347.062805,109.875618 346.613098,110.778442 
	C345.878479,112.833275 345.534821,114.420349 345.191162,116.007416 
	C342.080322,126.778114 330.834076,130.780991 320.423767,128.795547 
	C312.174103,127.222183 305.421021,119.199158 304.983490,108.452248 
	C304.735565,102.361794 304.996094,96.419785 308.409576,91.059845 
	C315.071625,80.598953 331.241669,78.798462 340.089172,87.551155 
	C341.031372,88.483269 341.965637,89.423431 343.042297,91.020706 
	C344.088806,93.132149 344.996643,94.582741 345.904419,96.033325 
z"/>
<path fill="#F6F8F9" opacity="1.000000" stroke="none" 
	d="
M346.265289,96.021881 
	C344.996643,94.582741 344.088806,93.132149 343.180969,91.337540 
	C345.334351,90.428658 347.487701,89.863800 349.959625,89.215378 
	C350.521881,92.505676 351.386810,95.567963 346.265289,96.021881 
z"/>
<path fill="#F6F8F9" opacity="1.000000" stroke="none" 
	d="
M345.543335,116.016777 
	C345.534821,114.420349 345.878479,112.833275 346.556274,111.104576 
	C347.927216,113.374214 348.964020,115.785477 350.000397,118.598366 
	C350.000000,119.000000 349.998779,119.001221 349.998779,119.001221 
	C348.631012,118.009521 347.263245,117.017830 345.543335,116.016777 
z"/>
<path fill="#F6F8F9" opacity="1.000000" stroke="none" 
	d="
M347.521118,108.925163 
	C347.126648,107.284058 347.073120,105.562622 347.101929,103.417633 
	C349.731323,103.942467 349.860077,105.053894 347.521118,108.925163 
z"/>
<path fill="#F6F8F9" opacity="1.000000" stroke="none" 
	d="
M347.997559,138.003052 
	C347.488190,137.699387 346.978821,137.395721 346.469482,137.092041 
	C346.651428,136.882523 346.833374,136.672974 347.015320,136.463440 
	C347.320831,136.785370 347.626373,137.107315 347.965973,137.714630 
	C348.000000,138.000000 347.997559,138.003052 347.997559,138.003052 
z"/>
<path fill="#F6F8F9" opacity="1.000000" stroke="none" 
	d="
M348.001404,137.998810 
	C348.124573,138.141525 348.246338,138.285400 348.368073,138.429291 
	C348.281036,138.380142 348.194000,138.330994 348.052246,138.142456 
	C347.997559,138.003052 348.000000,138.000000 348.001404,137.998810 
z"/>
<path fill="#F6F8F9" opacity="1.000000" stroke="none" 
	d="
M350.000610,118.999481 
	C350.122528,119.141396 350.243805,119.283821 350.365082,119.426254 
	C350.279114,119.376991 350.193176,119.327728 350.052979,119.139839 
	C349.998779,119.001221 350.000000,119.000000 350.000610,118.999481 
z"/>
<path fill="#F6F8F9" opacity="1.000000" stroke="none" 
	d="
M346.905029,99.863937 
	C346.670746,99.902939 346.374084,99.720436 346.135132,99.273193 
	C346.479706,99.147758 346.696289,99.359077 346.905029,99.863937 
z"/>
<path fill="#F6F8F9" opacity="1.000000" stroke="none" 
	d="
M350.532227,100.550621 
	C350.476257,100.584007 350.588196,100.517235 350.532227,100.550621 
z"/>
<path fill="#F6F8F9" opacity="1.000000" stroke="none" 
	d="
M350.467529,110.449631 
	C350.523224,110.416351 350.411804,110.482903 350.467529,110.449631 
z"/>
<path fill="#000000" opacity="1.000000" stroke="none" 
	d="
M530.659729,88.840767 
	C535.617493,81.210434 542.925964,80.256660 550.553955,81.102829 
	C558.810181,82.018684 563.607483,87.416069 565.583679,96.861137 
	C553.162170,96.861137 540.747375,96.861137 527.630005,96.861137 
	C528.621704,94.054451 529.496521,91.578636 530.659729,88.840767 
z"/>
<path fill="#000000" opacity="1.000000" stroke="none" 
	d="
M1038.267578,89.012672 
	C1036.859253,88.465706 1035.114868,87.935051 1035.104126,87.371155 
	C1034.932739,78.431244 1034.983643,69.487053 1034.983643,59.565552 
	C1042.926270,60.054443 1050.613525,60.221111 1058.218140,61.101788 
	C1063.424072,61.704670 1066.592896,66.602333 1067.076050,71.823418 
	C1068.223633,84.225571 1063.092041,89.592239 1049.736450,89.034218 
	C1046.076416,88.881310 1042.404541,89.012627 1038.267578,89.012672 
z"/>
<path fill="#000000" opacity="1.000000" stroke="none" 
	d="
M1235.563965,125.803177 
	C1226.678101,130.464493 1217.945068,131.523331 1210.279419,124.853867 
	C1207.017822,122.016121 1204.143433,117.462128 1203.395386,113.276573 
	C1201.932251,105.089264 1202.369507,96.648911 1207.301514,89.254364 
	C1210.844238,83.942871 1220.903931,80.231834 1228.029297,82.119202 
	C1235.123535,83.998322 1241.713013,90.510841 1243.121094,97.846855 
	C1245.152222,108.429688 1243.786255,117.785789 1235.563965,125.803177 
z"/>
<path fill="#24D3E8" opacity="1.000000" stroke="none" 
	d="
M44.005875,141.007324 
	C44.324718,140.896362 44.583614,140.704514 45.304462,140.215317 
	C48.209229,139.660431 50.592094,139.322021 52.974960,138.983597 
	C55.947704,138.231888 58.918522,137.472397 61.894318,136.732986 
	C62.835155,136.499207 63.791214,136.132248 64.737137,136.141754 
	C90.511375,136.400665 116.287376,136.976364 142.057358,136.773239 
	C147.563171,136.729843 152.876724,135.385559 157.648834,139.054535 
	C159.971420,140.840225 162.149414,142.813950 164.699265,144.852112 
	C164.915848,146.457657 164.826035,147.913620 164.713593,149.736526 
	C161.188629,149.476624 157.966492,149.036591 154.743790,149.032394 
	C118.002609,148.984436 81.261200,148.958069 44.520264,149.066879 
	C40.447365,149.078949 38.395844,148.214752 40.005363,143.402237 
	C40.014305,143.023102 40.497898,142.994522 41.095352,142.989731 
	C42.463833,142.325745 43.234856,141.666534 44.005875,141.007324 
z"/>
<path fill="#33D8DD" opacity="1.000000" stroke="none" 
	d="
M155.441589,122.115067 
	C155.886276,123.833290 155.944275,125.495659 155.783417,127.687126 
	C155.290955,128.417465 155.102768,128.679932 155.000000,129.003662 
	C152.864609,128.412842 151.216324,125.799232 148.290680,128.113892 
	C147.618805,128.645462 144.254883,126.449051 142.639053,124.956757 
	C140.132812,122.642075 137.854355,123.367393 134.899323,123.861801 
	C128.453171,124.940308 121.855110,125.156334 115.309464,125.572998 
	C112.543205,125.749084 109.737122,125.714668 106.976936,125.466621 
	C103.479332,125.152306 100.014938,124.484085 96.526558,124.045258 
	C94.655533,123.809891 92.681221,123.311211 90.896301,123.660660 
	C82.517738,125.300987 74.188728,127.194397 65.418571,128.993195 
	C71.313232,123.527191 78.332047,120.701744 86.970573,121.752647 
	C89.521263,122.062958 92.294243,119.463608 95.088799,119.066605 
	C101.856789,118.105125 108.685112,117.370201 115.512093,117.074898 
	C123.162735,116.743965 130.839111,117.046196 138.503372,116.974236 
	C141.872070,116.942612 144.828506,117.093925 147.639969,119.769035 
	C149.318390,121.366066 152.531616,121.350090 155.441589,122.115067 
z"/>
<path fill="#38C6E2" opacity="1.000000" stroke="none" 
	d="
M53.041599,138.630951 
	C50.592094,139.322021 48.209229,139.660431 45.414948,139.996979 
	C45.327026,138.928024 45.650513,137.860931 46.053352,136.467621 
	C47.066418,135.684052 48.000134,135.226715 49.025749,134.449219 
	C50.821609,133.753830 52.525570,133.378586 54.607788,132.997955 
	C54.360111,134.754471 53.734173,136.516403 53.041599,138.630951 
z"/>
<path fill="#38C6E2" opacity="1.000000" stroke="none" 
	d="
M155.001862,129.250946 
	C155.102768,128.679932 155.290955,128.417465 155.784409,128.106781 
	C156.447479,127.997963 156.890701,127.998596 157.666351,127.996872 
	C159.981476,131.413727 161.964172,134.832947 163.988159,138.608200 
	C161.708694,136.874344 159.387955,134.784439 156.991119,132.027618 
	C156.278015,130.904724 155.641022,130.448776 155.004028,129.992813 
	C155.004028,129.992813 155.003723,129.498230 155.001862,129.250946 
z"/>
<path fill="#33D8DD" opacity="1.000000" stroke="none" 
	d="
M61.211006,131.262726 
	C62.111607,130.351044 63.218700,129.699478 64.657028,129.019363 
	C63.798012,129.834824 62.607754,130.678833 61.211006,131.262726 
z"/>
<path fill="#33D8DD" opacity="1.000000" stroke="none" 
	d="
M155.043945,130.313782 
	C155.641022,130.448776 156.278015,130.904724 156.953857,131.681641 
	C156.356445,131.546631 155.720154,131.090683 155.043945,130.313782 
z"/>
<path fill="#38C6E2" opacity="1.000000" stroke="none" 
	d="
M55.333153,132.992950 
	C55.570118,132.838211 56.142742,132.689194 56.863678,132.764343 
	C56.564259,132.991898 56.116535,132.995270 55.333153,132.992950 
z"/>
<path fill="#38C6E2" opacity="1.000000" stroke="none" 
	d="
M164.129211,139.206726 
	C164.353180,139.079071 164.616135,139.266037 164.929520,139.759003 
	C164.703613,139.897766 164.433014,139.716553 164.129211,139.206726 
z"/>
<path fill="#5EE9BF" opacity="1.000000" stroke="none" 
	d="
M85.040451,53.468826 
	C85.489937,53.039131 85.919899,53.018383 86.672462,52.987099 
	C88.830673,56.318501 92.902451,57.182358 96.453575,54.983253 
	C101.822823,51.658237 112.045746,54.463654 115.181702,59.970165 
	C115.858757,61.159016 117.233177,61.950706 118.641472,62.964462 
	C116.562431,65.303986 114.089966,66.707954 110.421440,67.393349 
	C105.931236,68.232262 101.919655,71.632965 97.350861,73.556000 
	C97.993080,70.682480 98.985565,68.178932 100.235329,65.026413 
	C96.557549,65.026413 92.579727,64.584122 88.774269,65.202507 
	C86.696098,65.540207 84.909767,67.673836 82.991821,68.997543 
	C83.828659,65.480247 84.665504,61.962955 85.210190,58.203705 
	C84.952332,56.600422 84.986626,55.239098 85.040451,53.468826 
z"/>
<path fill="#38C6E2" opacity="1.000000" stroke="none" 
	d="
M43.750343,140.999390 
	C43.234856,141.666534 42.463833,142.325745 41.337418,142.980927 
	C41.474113,142.393265 41.966209,141.809616 42.721085,141.098953 
	C43.154179,140.978424 43.324490,140.984940 43.750343,140.999390 
z"/>
<path fill="#000000" opacity="1.000000" stroke="none" 
	d="
M37.310619,141.079956 
	C37.612812,140.433868 38.288738,139.828674 39.263420,139.614395 
	C38.936234,140.377151 38.310291,140.749008 37.310619,141.079956 
z"/>
<path fill="#42DAD6" opacity="1.000000" stroke="none" 
	d="
M89.033089,109.637993 
	C88.552895,109.998550 88.111893,110.001656 87.117508,110.104057 
	C86.287010,110.390152 86.084610,110.637985 85.956924,110.946854 
	C85.524796,110.951881 85.092659,110.956902 84.336700,110.953232 
	C82.087212,107.147530 80.631920,109.716278 79.048958,111.650513 
	C76.471092,112.788559 73.948647,113.583313 71.426201,114.378067 
	C71.537506,114.474480 71.648811,114.570892 71.760117,114.667313 
	C64.399582,118.439590 57.039047,122.211876 49.572212,126.038635 
	C47.009628,122.941765 49.155827,120.350723 50.989349,117.362762 
	C52.156845,116.842110 53.997612,117.022079 54.278938,116.443626 
	C57.382736,110.061638 64.830536,108.133736 69.144608,102.186523 
	C73.547882,102.058022 77.275345,102.173004 81.002510,102.163994 
	C86.389374,102.150963 91.775970,102.006416 97.162796,101.998756 
	C100.538147,101.993950 103.913818,102.194939 107.289116,102.188171 
	C108.804352,102.185135 110.316605,101.869514 111.834381,101.747704 
	C116.642509,101.361801 121.451599,100.817993 126.262825,100.791344 
	C127.169533,100.786316 128.087860,102.879051 129.000824,104.003799 
	C120.402618,104.589996 111.808044,105.240364 103.204247,105.727753 
	C100.173698,105.899437 97.036087,105.229652 94.108551,105.788490 
	C92.274429,106.138588 90.740761,108.062683 89.033089,109.637993 
z"/>
<path fill="#58E5C5" opacity="1.000000" stroke="none" 
	d="
M82.690414,69.150482 
	C84.909767,67.673836 86.696098,65.540207 88.774269,65.202507 
	C92.579727,64.584122 96.557549,65.026413 100.235329,65.026413 
	C98.985565,68.178932 97.993080,70.682480 97.001213,73.590263 
	C93.685562,76.062904 90.369301,78.131310 86.974792,80.541000 
	C86.172691,80.921898 85.448830,80.961517 84.142593,81.108040 
	C83.286827,81.408875 83.096268,81.664543 82.988541,81.981964 
	C82.546585,81.986206 82.104630,81.990448 81.111786,81.734970 
	C79.532639,81.400024 78.504372,81.324791 77.218063,81.230682 
	C77.552231,82.812317 77.783272,83.905853 78.014313,84.999390 
	C77.024544,85.764931 76.034782,86.530479 74.972839,87.608948 
	C74.610390,88.051834 74.365524,88.240654 74.038406,88.683273 
	C73.488853,88.901688 73.066948,88.925163 72.327919,88.939499 
	C70.501785,84.067825 74.637848,81.260155 76.348930,77.648361 
	C77.794228,74.597588 80.333771,72.065216 82.690414,69.150482 
z"/>
<path fill="#44E0D0" opacity="1.000000" stroke="none" 
	d="
M129.262299,104.112381 
	C128.087860,102.879051 127.169533,100.786316 126.262825,100.791344 
	C121.451599,100.817993 116.642509,101.361801 111.834381,101.747704 
	C110.316605,101.869514 108.804352,102.185135 107.289116,102.188171 
	C103.913818,102.194939 100.538147,101.993950 97.162796,101.998756 
	C91.775970,102.006416 86.389374,102.150963 81.002510,102.163994 
	C77.275345,102.173004 73.547882,102.058022 69.412643,101.999901 
	C70.646225,100.568192 72.287720,99.135025 73.972229,97.354630 
	C77.651726,95.836914 81.386650,94.902443 84.900162,93.437111 
	C89.447945,91.540428 93.819107,89.220253 98.721420,87.208099 
	C99.450096,87.219391 99.723671,87.104988 99.997238,86.990585 
	C99.997238,86.990585 100.492798,86.978912 100.887199,87.313217 
	C102.234276,90.111526 103.202385,93.659706 106.582863,91.492027 
	C113.120697,87.299744 120.126442,89.568054 126.910049,89.141113 
	C128.223618,89.058441 130.072144,90.465393 130.941910,91.700638 
	C133.242401,94.967796 135.514664,97.990959 140.000244,98.003471 
	C140.754135,99.184860 141.508011,100.366249 141.848099,100.899178 
	C140.588058,101.915657 139.245193,102.448502 139.082077,103.228172 
	C138.457703,106.212608 136.725204,105.852196 134.322968,105.054535 
	C133.227158,105.028053 132.492142,105.023796 131.389618,105.020996 
	C130.522659,104.755272 130.023209,104.488106 129.262299,104.112381 
z"/>
<path fill="#4FE2CB" opacity="1.000000" stroke="none" 
	d="
M139.906036,97.755013 
	C135.514664,97.990959 133.242401,94.967796 130.941910,91.700638 
	C130.072144,90.465393 128.223618,89.058441 126.910049,89.141113 
	C120.126442,89.568054 113.120697,87.299744 106.582863,91.492027 
	C103.202385,93.659706 102.234276,90.111526 101.135025,87.309677 
	C101.545357,86.220314 101.951378,85.050560 102.684059,84.786232 
	C106.914940,83.259872 111.222961,81.947334 115.750938,80.287689 
	C118.748779,79.674088 121.495590,79.286011 124.253548,79.008698 
	C127.712379,78.660904 130.844254,78.921547 132.110489,83.055481 
	C132.347672,83.829857 133.480057,84.330032 134.543869,85.030731 
	C135.336990,86.046806 135.785568,86.988914 136.556671,88.020432 
	C137.623337,89.750435 138.367493,91.391022 139.484512,93.086472 
	C139.890060,93.563263 139.922729,93.985191 139.961151,94.726280 
	C139.915192,95.865814 139.863510,96.686180 139.906036,97.755013 
z"/>
<path fill="#4FE2CB" opacity="1.000000" stroke="none" 
	d="
M99.747635,86.991287 
	C99.723671,87.104988 99.450096,87.219391 99.087685,87.165512 
	C98.998840,86.997238 99.498024,86.991982 99.747635,86.991287 
z"/>
<path fill="#68DDC2" opacity="1.000000" stroke="none" 
	d="
M78.374527,84.999725 
	C77.783272,83.905853 77.552231,82.812317 77.218063,81.230682 
	C78.504372,81.324791 79.532639,81.400024 80.780327,81.738998 
	C80.986252,82.725655 80.972748,83.448555 80.923531,84.529793 
	C80.170128,84.925438 79.452438,84.962753 78.374527,84.999725 
z"/>
<path fill="#68DDC2" opacity="1.000000" stroke="none" 
	d="
M83.210426,81.881966 
	C83.096268,81.664543 83.286827,81.408875 83.779343,81.111496 
	C83.898071,81.330643 83.709358,81.588615 83.210426,81.881966 
z"/>
<path fill="#56D3D0" opacity="1.000000" stroke="none" 
	d="
M86.187851,110.861664 
	C86.084610,110.637985 86.287010,110.390152 86.786697,110.105797 
	C86.902939,110.333908 86.706116,110.589981 86.187851,110.861664 
z"/>
</svg>