<?xml version="1.0" encoding="UTF-8"?>
<svg version="1.1" viewBox="0 0 2048 2048" width="3000" height="3000" xmlns="http://www.w3.org/2000/svg">
<path transform="translate(723,783)" d="m0 0 7 1 27 9 26 11 21 10 21 12 15 10 16 12 14 12 22 22 11 14 11 15 12 20 10 19 12 29 10 30 9 34 9 45 8 51 14 101 2 13v5l-5-5-9-10-10-9-16-12-21-13-23-12-22-10-36-12-25-6-18-3-10-1h-33l-19 3-17 5-14 7h-2v-39l2-262z" fill="#FCA302"/>
<path transform="translate(1321,783)" d="m0 0h4l1 96 2 263v38l-6-2-10-5-17-5-19-3h-33l-23 3-27 6-36 12-23 10-22 11-21 13-16 12-14 12-11 12-2 2 1-12 14-100 8-52 8-42 9-36 9-29 11-28 11-23 13-22 10-14 11-14 11-12 18-18 11-9 19-14 25-15 21-11 28-12 25-9z" fill="#FCA302"/>
<path transform="translate(1015,545)" d="m0 0 8 1 191 60 2 2-16 8-5 2-1 57 4 2 2 3v6l-4 5-7 1-6-5v-8l4-4h2v-54l-39 18-33 15-15 7 3 10 3 13v24l-4 17-8 16-8 11-9 9-13 9-16 7-13 3h-27l-15-4-16-8-11-8-9-9-7-10-8-16-4-17v-24l4-16 3-8-6-2-10-5-37-15-49-20-12-5-1-2 122-44z" fill="#0065FE"/>
<path transform="translate(768,762)" d="m0 0h38l27 2 32 5 27 7 21 8 19 9 18 11 13 10 10 9 6 5 7 8 10 13 8 13 8 17 4 12 1 377-2-2-9-62-11-80-8-48-8-38-9-34-10-30-11-26-8-16-8-15-11-17-14-19-11-12-7-8-10-10-11-9-12-10-27-18-25-14-26-12-26-10-31-10 2-2 27-3z" fill="#0065FE"/>
<path transform="translate(1242,762)" d="m0 0h38l28 2 16 2 2 2-37 12-29 12-23 11-24 14-19 13-14 11-10 9-8 7-10 10-7 8-12 15-11 16-8 13-12 22-12 28-10 28-10 37-8 37-8 47-11 78-9 64-2 8h-1l1-377 6-17 10-19 10-14 10-11 4-5 8-7 15-12 18-11 17-9 26-10 27-7 32-5z" fill="#0065FE"/>
<path transform="translate(1015,558)" d="m0 0 8 1 159 50-3 3-74 34-4-4-8-10-8-8-10-7-15-8-16-5-18-2-16 1-16 4-12 5-12 7-10 8-8 8-7 10-16-6-44-18-19-8 2-2 45-16 47-17z" fill="#FCA302"/>
<path transform="translate(1040,1309)" d="m0 0 2 1v112h-29l-1-78-19 70-3 8h-30l-4-13-18-66-1 79h-29v-112h44l3 8 19 67v4h2l1-7 20-71 1-1z" fill="#0065FE"/>
<path transform="translate(683,1309)" d="m0 0 70 1 13 4 6 4 6 8 4 13 1 11v32l-2 15-4 11-5 6-12 6-10 2h-68v-112zm30 26v62h28l7-3 3-5 1-7v-32l-2-10-5-4-2-1z" fill="#0065FE"/>
<path transform="translate(1645,1308)" d="m0 0h28l13 2 12 6 6 7 4 11 2 17v30l-2 17-5 12-4 5-8 5-11 3h-42l-13-4-8-6-5-9-3-12v-53l3-11 4-8 7-6 9-4zm4 27-6 3-3 6-1 9v26l2 12 5 5 4 1h17l8-3 3-6 1-8v-29l-2-10-5-5-3-1z" fill="#0065FE"/>
<path transform="translate(1502,1309)" d="m0 0 61 1 14 3 9 6 5 10 1 5v21l-3 9-7 8-8 3 12 6 5 8 1 4v29h-31l-1-25-2-5-7-2-19-1v33h-31v-112zm30 26v29h21l6-3 2-4v-16l-4-5-2-1z" fill="#0065FE"/>
<path transform="translate(1253,1308)" d="m0 0h33l14 3 8 6 4 5 2 5v15h-29l-2-7-5-2h-14l-7 2-1 3v8l3 3 6 2 31 4 11 4 7 6 4 9v27l-4 9-7 8-8 4-4 1h-47l-10-3-6-4-5-6-3-9v-14h29l3 9 4 2h22l3-1 2-5v-7l-3-5-10-2-27-3-11-4-7-6-4-11v-24l4-10 5-6 7-4z" fill="#0065FE"/>
<path transform="translate(371,1309)" d="m0 0h46l3 9 20 71 9 32v1h-33l-4-15v-4h-36l-4 17-1 2h-32l1-7 30-105zm22 24-5 18-6 25v4h23l1-2-10-42-1-3z" fill="#0065FE"/>
<path transform="translate(591,1309)" d="m0 0h45l3 7 25 89 4 14v3h-32l-3-9-2-10h-36l-1 7-3 12h-33l4-16 26-90zm21 24-11 46 1 1h23l-1-9-9-37z" fill="#0065FE"/>
<path transform="translate(885,1309)" d="m0 0h1v26h-54v19h53v22h-53v21h56v25h-86v-112z" fill="#0065FE"/>
<path transform="translate(1391,1309)" d="m0 0 65 1 13 4 6 4 6 8 3 10v29l-3 10-6 9-9 5-12 3-33 1-1 29h-30v-112zm30 26-1 1v30l1 1h25l6-3 1-3v-20l-5-5-2-1z" fill="#0065FE"/>
<path transform="translate(1153,1308)" d="m0 0h22l13 2 9 4 7 6 4 8 2 10v13h-30l-2-10-4-4-3-1h-14l-5 2-3 9v38l2 7 4 3 4 1h10l7-3 3-5 1-9h31v11l-3 14-6 10-9 6-11 3h-36l-13-4-8-6-5-8-3-11-1-9v-39l3-16 5-10 8-7 12-4z" fill="#0065FE"/>
<path transform="translate(493,1308)" d="m0 0h22l13 2 10 4 7 7 4 10 1 5v15h-30l-2-11-4-3-3-1h-14l-5 3-2 4-1 6v34l2 9 4 3 4 1h11l7-3 2-4 1-10h31v13l-3 12-5 9-8 6-13 4h-36l-13-4-8-6-6-12-2-9v-53l3-11 4-8 7-6 9-4z" fill="#0065FE"/>
<path transform="translate(1095,1309)" d="m0 0h1v113h-30v-112z" fill="#0065FE"/>
<path transform="translate(874,1460)" d="m0 0h8l7 10 1 4 3-3 7-11h9v35h-8l-1-20-8 12h-2l-7-11v-2h-2v21h-8v-34z" fill="#FCA302"/>
<path transform="translate(1276,1460)" d="m0 0h8l14 19 1-19h8v35h-7l-12-15-3-4-1 19h-8z" fill="#FCA302"/>
<path transform="translate(478,1459)" d="m0 0 9 1 8 5 4 8v9l-4 8-5 4-6 2h-8l-8-4-5-6-2-10 3-9 7-6zm-2 8-5 4-1 2v9l4 5 7 2 7-3 3-6-1-8-6-5z" fill="#FCA302"/>
<path transform="translate(1594,1460)" d="m0 0h7l9 11 6 8 1-19h8v35h-7l-9-11-6-8v-2h-2v21h-7z" fill="#FCA302"/>
<path transform="translate(1677,1460)" d="m0 0h19l8 4 4 5 2 10-3 9-6 5-5 2h-19zm8 7v21h10l5-4 1-2v-9l-5-5-2-1z" fill="#FCA302"/>
<path transform="translate(1497,1459)" d="m0 0 10 1 6 3-1 4-4 3-4-2h-8l-5 5-1 6 3 7 5 2 9-1v-5h-7l-1-1v-6h16v15l-5 4-6 2h-8l-8-3-5-6-2-5v-8l3-7 5-5z" fill="#FCA302"/>
<path transform="translate(568,1459)" d="m0 0 10 1 6 3-1 4-4 3-4-2h-8l-5 5-1 6 2 7 6 2 9-1v-5h-7l-1-1v-6h16v15l-5 4-6 2h-8l-8-3-5-6-2-6v-7l3-7 7-6z" fill="#FCA302"/>
<path transform="translate(791,1460)" d="m0 0h19l6 3 5 5 2 4v11l-5 8-8 4h-19zm8 7v21h9l5-3 2-4-1-9-4-4-3-1z" fill="#FCA302"/>
<path transform="translate(422,1460)" d="m0 0h21l6 4 2 3v9l-5 6h-2l8 12v1h-9l-7-10-6-1v11h-8zm8 7v10h10l3-2v-6l-3-2z" fill="#FCA302"/>
<path transform="translate(1638,1460)" d="m0 0h27v7h-19v7h17v7h-17v7h19v7h-27z" fill="#FCA302"/>
<path transform="translate(1237,1460)" d="m0 0h27v7h-19v7h17v7h-17v7h19v7h-27z" fill="#FCA302"/>
<path transform="translate(1126,1460)" d="m0 0h27v7h-19v7h17v7h-17v7h19v7h-27z" fill="#FCA302"/>
<path transform="translate(1006,1460)" d="m0 0h27v7h-19v7h17v7h-17v7h19v7h-27z" fill="#FCA302"/>
<path transform="translate(598,1460)" d="m0 0h8v14h14v-14h8v35h-8v-14h-14v14h-8z" fill="#FCA302"/>
<path transform="translate(835,1460)" d="m0 0h26l1 1v6h-19v7h16v7h-16v7h19v7h-27z" fill="#FCA302"/>
<path transform="translate(1363,1460)" d="m0 0h26v7l-18 1v5l16 1v7l-16 1-1 6h19v7h-26z" fill="#FCA302"/>
<path transform="translate(510,1460)" d="m0 0h8l1 23 1 4h10l2-3 1-24h8v25l-3 6-5 4-4 1h-7l-7-3-4-5-1-4z" fill="#FCA302"/>
<path transform="translate(673,1460)" d="m0 0h8l6 13 9 22h-9l-3-7h-14l-3 7h-8l1-5zm3 10-3 10h8l-3-9z" fill="#FCA302"/>
<path transform="translate(758,1460)" d="m0 0h8l14 33v2h-8l-3-6v-2h-15l-2 7-1 1h-8l5-13 9-21zm3 10-4 10h9l-4-10z" fill="#FCA302"/>
<path transform="translate(1539,1460)" d="m0 0h8l14 33v2h-8l-3-6v-2l-14 1-4 7h-8l8-20 6-14zm3 10-4 10h9l-4-10z" fill="#FCA302"/>
<path transform="translate(379,1460)" d="m0 0h7v14l14-1 1-13h7v35h-7l-1-13-14-1v14h-7z" fill="#FCA302"/>
<path transform="translate(1043,1460)" d="m0 0h9l7 10 7-10h9l-2 5-8 11 2 5 9 13v1h-10l-6-9v-2h-2l-2 5-4 6h-9l2-5 8-11-1-5-8-11z" fill="#FCA302"/>
<path transform="translate(718,1459)" d="m0 0 10 1 6 4-3 6-4-1-2-1h-8l-5 5-1 5 3 7 2 2 6 1 9-3 4 5-5 4-5 2h-8l-7-3-5-5-3-7v-7l4-8 6-5z" fill="#FCA302"/>
<path transform="translate(1335,1459)" d="m0 0 10 1 6 4-2 4-4 2-3-2h-9l-4 4-1 8 3 6 7 2 7-3 4 1 2 2v3l-6 4-4 1h-8l-8-4-4-5-2-5v-9l4-8 7-5z" fill="#FCA302"/>
<path transform="translate(958,1459)" d="m0 0 10 1 7 4-4 6-4-1-2-1h-8l-5 5v9l5 5 5 1 9-3 4 5-5 4-5 2h-8l-7-3-6-7-2-9 2-8 6-7z" fill="#FCA302"/>
<path transform="translate(1098,1459)" d="m0 0 10 1 7 4-3 5-3 1-4-2h-8l-4 3-1 3v7l3 5 7 2 9-3 4 5-5 4-5 2h-8l-8-4-5-6-1-2v-12l3-6 6-5z" fill="#FCA302"/>
<path transform="translate(339,1460)" d="m0 0h29v7h-11v28h-8v-28h-11v-6z" fill="#FCA302"/>
<path transform="translate(1201,1460)" d="m0 0h8v28h17v7h-25z" fill="#FCA302"/>
<path transform="translate(1165,1460)" d="m0 0h8v28h17v7h-25z" fill="#FCA302"/>
<path transform="translate(1572,1460)" d="m0 0h8v35h-8z" fill="#FCA302"/>
<path transform="translate(1441,1460)" d="m0 0h8v35h-8z" fill="#FCA302"/>
<path transform="translate(922,1460)" d="m0 0h8v35h-8z" fill="#FCA302"/>
<path transform="translate(1400,1487)" d="m0 0h8v12l-4 4h-5l-1-3 4-2 1-3h-3z" fill="#FCA302"/>
</svg>
